<?xml version="1.0" encoding="iso-8859-1"?>
<!-- Generator: Adobe Illustrator 19.0.0, SVG Export Plug-In . SVG Version: 6.00 Build 0)  -->
<svg xmlns="http://www.w3.org/2000/svg" xmlns:xlink="http://www.w3.org/1999/xlink" version="1.1" id="Capa_1" x="0px" y="0px" viewBox="0 0 512 512" style="enable-background:new 0 0 512 512;" xml:space="preserve" width="512px" height="512px">
<g>
	<g>
		<g>
			<circle cx="330.667" cy="96" r="10.667" fill="#FFFFFF"/>
			<circle cx="394.667" cy="96" r="10.667" fill="#FFFFFF"/>
			<path d="M410.208,129.281c-5.125-2.708-11.583-0.667-14.354,4.479c-0.333,0.635-8.667,15.573-33.188,15.573     c-24.333,0-32.729-14.719-33.188-15.563c-2.688-5.167-9-7.198-14.25-4.646c-5.271,2.635-7.396,9.042-4.771,14.313     c0.563,1.115,14.063,27.229,52.208,27.229c38.146,0,51.646-26.115,52.208-27.229     C417.479,138.229,415.375,131.958,410.208,129.281z" fill="#FFFFFF"/>
			<path d="M149.333,362.667C190.5,362.667,224,329.167,224,288s-33.5-74.667-74.667-74.667c-41.167,0-74.667,33.5-74.667,74.667     S108.167,362.667,149.333,362.667z M149.333,234.667c29.417,0,53.333,23.927,53.333,53.333s-23.917,53.333-53.333,53.333     C119.917,341.333,96,317.406,96,288S119.917,234.667,149.333,234.667z" fill="#FFFFFF"/>
			<path d="M264,414.531C237.146,400.604,195.458,384,149.333,384s-87.813,16.604-114.667,30.531     C13.292,425.615,0,447.469,0,471.573v9.76C0,498.24,13.667,512,30.479,512h237.708c16.813,0,30.479-13.76,30.479-30.667v-9.76     C298.667,447.469,285.375,425.615,264,414.531z M277.333,481.333c0,5.146-4.104,9.333-9.146,9.333H30.479     c-5.042,0-9.146-4.188-9.146-9.333v-9.76c0-16.104,8.875-30.698,23.167-38.104c24.729-12.833,63.021-28.135,104.833-28.135     s80.104,15.302,104.833,28.135c14.292,7.406,23.167,22,23.167,38.104V481.333z" fill="#FFFFFF"/>
			<path d="M362.667,0c-82.333,0-149.333,52.635-149.333,117.333c0,25.958,10.875,50.938,30.875,71.375l-27.75,27.75     c-3.042,3.052-3.958,7.635-2.313,11.625c1.646,3.99,5.542,6.583,9.854,6.583h138.667C445,234.667,512,182.031,512,117.333     S445,0,362.667,0z M362.667,213.333H249.75L267.083,196c2.104-2.104,3.229-4.979,3.125-7.948     c-0.125-2.969-1.479-5.76-3.729-7.688c-20.521-17.594-31.813-39.979-31.813-63.031c0-52.938,57.417-96,128-96s128,43.063,128,96     S433.25,213.333,362.667,213.333z" fill="#FFFFFF"/>
		</g>
	</g>
</g>
<g>
</g>
<g>
</g>
<g>
</g>
<g>
</g>
<g>
</g>
<g>
</g>
<g>
</g>
<g>
</g>
<g>
</g>
<g>
</g>
<g>
</g>
<g>
</g>
<g>
</g>
<g>
</g>
<g>
</g>
</svg>
