<?xml version="1.0" encoding="utf-8"?>
<!-- Generator: Adobe Illustrator 22.0.1, SVG Export Plug-In . SVG Version: 6.00 Build 0)  -->
<svg version="1.1" id="Layer_1" xmlns="http://www.w3.org/2000/svg" xmlns:xlink="http://www.w3.org/1999/xlink" x="0px" y="0px"
	 viewBox="0 0 785.1 376.1" style="enable-background:new 0 0 785.1 376.1;" xml:space="preserve">
<style type="text/css">
	.st0{fill:#49C102;}
	.st1{fill:#FFFFFF;}
</style>
<g>
	<g>
		<path class="st0" d="M235.8,47.3H76.9c-1.8,0-3.2-2.2-3.2-5s1.4-5,3.2-5h158.9c1.8,0,3.2,2.2,3.2,5S237.6,47.3,235.8,47.3z"/>
	</g>
	<g>
		<path class="st0" d="M5.7,68.2V11.8c0-2.3,0.7-4.2,2.1-5.5c1.4-1.3,3.2-2,5.2-2c2,0,3.6,0.7,5.1,2c1.4,1.3,2.1,3.1,2.1,5.5v21.1
			h30.9V11.8c0-2.3,0.7-4.1,2.1-5.5c1.4-1.3,3.1-1.9,5.1-1.9c2.1,0,3.8,0.7,5.3,2c1.5,1.3,2.2,3.1,2.2,5.4v56.4
			c0,2.4-0.7,4.3-2.1,5.7c-1.4,1.4-3.1,2.1-5.2,2.1c-2.2,0-4-0.7-5.4-2.1c-1.4-1.4-2-3.3-2-5.7V46.7H20.2v21.5c0,2.4-0.7,4.3-2,5.7
			s-3.1,2.1-5.2,2.1c-2.2,0-3.9-0.7-5.3-2.1C6.3,72.5,5.7,70.6,5.7,68.2z"/>
	</g>
	<g>
		<path class="st0" d="M261.4,72.7c-5.1-3.2-9.1-7.6-12-13.1c-2.9-5.6-4.3-11.7-4.3-18.4c0-5.1,0.8-10,2.4-14.5
			c1.6-4.5,4-8.4,7-11.7c3-3.4,6.6-5.9,10.7-7.8c4.1-1.9,8.7-2.8,13.6-2.8c4.9,0,9.4,0.9,13.5,2.8c4.1,1.9,7.7,4.5,10.7,7.9
			c3,3.4,5.3,7.3,7,11.8c1.6,4.5,2.4,9.2,2.4,14.2c0,6.8-1.4,12.9-4.2,18.5c-2.8,5.5-6.7,9.9-11.9,13c-5.1,3.2-11,4.8-17.5,4.8
			C272.3,77.5,266.6,75.9,261.4,72.7z M288.8,60.5c2.8-2.1,4.9-4.9,6.3-8.4c1.4-3.5,2.1-7.1,2.1-11c0-3-0.4-5.8-1.1-8.5
			c-0.8-2.7-2-5.1-3.5-7.3c-1.5-2.2-3.5-3.9-5.8-5.1c-2.3-1.3-5-1.9-8-1.9c-3.9,0-7.2,1.1-10,3.2c-2.8,2.1-4.9,5-6.3,8.5
			c-1.4,3.5-2.1,7.2-2.1,11.1c0,3.8,0.7,7.5,2.1,11c1.4,3.5,3.5,6.3,6.3,8.4c2.8,2.1,6.2,3.2,10.1,3.2S286,62.6,288.8,60.5z"/>
	</g>
	<g>
		<path class="st1" d="M236.6,202.3H77.6c-1.8,0-3.2-2.2-3.2-5s1.4-5,3.2-5h158.9c1.8,0,3.2,2.2,3.2,5S238.3,202.3,236.6,202.3z"/>
	</g>
	<g>
		<path class="st1" d="M236.6,352.3H77.6c-1.8,0-3.2-2.2-3.2-5s1.4-5,3.2-5h158.9c1.8,0,3.2,2.2,3.2,5S238.3,352.3,236.6,352.3z"/>
	</g>
	<g>
		<path class="st1" d="M41.5,85.7v71.2c0,0.8-2.2,1.4-5,1.4s-5-0.6-5-1.4V85.7c0-0.8,2.2-1.4,5-1.4S41.5,84.9,41.5,85.7z"/>
	</g>
	<g>
		<path class="st1" d="M12,197.3c0-4.6,0.7-9,2.2-13s3.6-7.6,6.3-10.5c2.7-3,5.9-5.4,9.6-7c3.7-1.7,7.8-2.5,12.2-2.5
			c2.5,0,5.3,0.3,8.3,1c3,0.7,5.5,1.8,7.6,3.3c2.1,1.5,3.2,3.5,3.2,5.9c0,1.6-0.5,2.9-1.6,4.1c-1.1,1.2-2.3,1.8-3.9,1.8
			c-0.9,0-2.3-0.3-4-1c-2.3-0.9-4-1.4-5.1-1.7c-1.1-0.2-2.4-0.4-3.9-0.4h-0.5c-3.5,0-6.5,0.9-9,2.8c-2.5,1.9-4.4,4.4-5.6,7.4
			c-1.3,3-1.9,6.3-1.9,9.8c0,3.4,0.6,6.6,1.9,9.6s3.1,5.5,5.7,7.4c2.5,1.8,5.5,2.8,9,2.8c1.8,0,3.2-0.1,4.4-0.4s3-0.9,5.5-2
			c1.9-0.8,3.3-1.2,4.2-1.2c1.8,0,3.2,0.7,4.2,2.1c1,1.4,1.5,2.7,1.5,4.1c0,2.6-1.1,4.7-3.3,6.2c-2.2,1.6-4.9,2.7-8,3.3
			c-3,0.6-5.9,0.9-8.6,0.9c-5.8,0-11-1.4-15.6-4.3c-4.6-2.9-8.2-6.8-10.8-11.8C13.3,208.9,12,203.4,12,197.3z"/>
	</g>
	<g>
		<path class="st1" d="M263.9,223.2c-4.3-2.7-7.6-6.3-10-10.9c-2.4-4.6-3.6-9.7-3.6-15.3c0-4.3,0.7-8.3,2-12s3.3-7,5.8-9.8
			c2.5-2.8,5.5-4.9,8.9-6.5c3.4-1.5,7.2-2.3,11.3-2.3c4.1,0,7.8,0.8,11.3,2.4c3.4,1.6,6.4,3.8,8.9,6.6c2.5,2.8,4.5,6.1,5.8,9.8
			s2,7.7,2,11.8c0,5.6-1.2,10.8-3.5,15.4c-2.3,4.6-5.6,8.2-9.9,10.9c-4.3,2.7-9.1,4-14.6,4C273,227.2,268.2,225.8,263.9,223.2z
			 M286.7,213c2.3-1.8,4.1-4.1,5.2-7c1.2-2.9,1.7-5.9,1.7-9.1c0-2.5-0.3-4.9-0.9-7.1c-0.7-2.2-1.7-4.2-2.9-6
			c-1.3-1.8-2.9-3.2-4.8-4.3c-2-1-4.2-1.6-6.6-1.6c-3.3,0-6,0.9-8.3,2.7c-2.3,1.8-4,4.1-5.2,7.1c-1.2,2.9-1.8,6-1.8,9.3
			c0,3.2,0.6,6.2,1.7,9.1c1.2,2.9,2.9,5.2,5.2,7c2.3,1.8,5.1,2.7,8.4,2.7S284.4,214.8,286.7,213z"/>
	</g>
	<g>
		<path class="st1" d="M478.6,202.3H319.7c-1.8,0-3.2-2.2-3.2-5s1.4-5,3.2-5h158.9c1.8,0,3.2,2.2,3.2,5S480.3,202.3,478.6,202.3z"/>
	</g>
	<g>
		<path class="st1" d="M478.6,352.3H319.7c-1.8,0-3.2-2.2-3.2-5s1.4-5,3.2-5h158.9c1.8,0,3.2,2.2,3.2,5S480.3,352.3,478.6,352.3z"/>
	</g>
	<g>
		<path class="st1" d="M724.6,352.3H565.7c-1.8,0-3.2-2.2-3.2-5s1.4-5,3.2-5h158.9c1.8,0,3.2,2.2,3.2,5S726.3,352.3,724.6,352.3z"/>
	</g>
	<g>
		<path class="st1" d="M492.5,217.8l6.9-42.4c0.3-1.8,1.2-3.2,2.5-4.2c1.3-1,2.8-1.5,4.6-1.5c1.8,0,3.4,0.5,4.9,1.4
			c1.5,0.9,2.5,2.2,3.1,3.8l8.9,30l9-30c0.4-1.6,1.4-2.9,2.8-3.9c1.4-0.9,3-1.4,4.7-1.4c1.7,0,3.3,0.5,4.7,1.5
			c1.4,1,2.2,2.4,2.5,4.1l6.9,42.4c0.2,0.5,0.2,0.9,0.2,1.4c0,1.4-0.5,2.6-1.6,3.6c-1.1,1.1-2.4,1.6-3.8,1.6c-1.9,0-3.3-0.4-4.2-1.3
			c-0.9-0.8-1.5-2.2-1.7-4l-4.5-30.9l-9,31.7c-0.3,1.4-1.1,2.5-2.1,3.3c-1.1,0.8-2.3,1.2-3.6,1.2c-1.4,0-2.7-0.4-3.8-1.2
			c-1.2-0.8-2-1.9-2.4-3.3l-9.1-31.7l-4.4,30.9c-0.3,1.8-0.9,3.2-1.8,4c-0.9,0.8-2.3,1.3-4.1,1.3
			C494.3,224.5,492.5,222.3,492.5,217.8z"/>
	</g>
	<g>
		<path class="st1" d="M19.3,366.9V328c0-1.6,0.5-2.9,1.5-3.9c1-1,2.3-1.5,3.9-1.5h12.3c3.3,0,6.2,0.7,8.9,2.1
			c2.7,1.4,4.8,3.4,6.3,5.9c1.5,2.5,2.3,5.4,2.3,8.6c0,3.3-0.8,6.1-2.3,8.6c-1.5,2.5-3.6,4.4-6.2,5.7c-2.6,1.3-5.5,2-8.5,2h-7.8
			v11.3c0,1.6-0.5,2.9-1.5,3.8s-2.2,1.4-3.6,1.4s-2.6-0.5-3.6-1.4C19.8,369.8,19.3,368.5,19.3,366.9z M29.6,331.8v14.7h6.9
			c2.2,0,4-0.7,5.2-2.2c1.2-1.5,1.8-3.2,1.8-5.2c0-1.3-0.3-2.5-0.8-3.6s-1.3-2-2.4-2.7c-1.1-0.7-2.4-1-3.8-1H29.6z"/>
	</g>
	<g>
		<path class="st1" d="M259.3,363.7l12.5-34c0.6-1.5,1.5-2.7,2.7-3.7c1.2-1,2.5-1.5,4-1.5c1.5,0,2.8,0.5,4,1.5c1.1,1,2,2.2,2.6,3.8
			l12,34c0.2,0.7,0.4,1.4,0.4,2.1c0,1.2-0.4,2.2-1.1,3c-0.7,0.9-1.7,1.3-3,1.3c-2.3,0-3.8-1.1-4.5-3.4l-2-5.8h-17.1l-1.8,5.8
			c-0.3,1.1-0.9,1.9-1.7,2.4c-0.8,0.5-1.6,0.8-2.6,0.8c-1.3,0-2.4-0.4-3.4-1.2c-1-0.8-1.6-1.9-1.6-3.1
			C258.8,365,259,364.3,259.3,363.7z M278.5,334.3l-5.9,18.1h11.7l-5.6-18.1H278.5z"/>
	</g>
	<g>
		<path class="st1" d="M506.5,363.5v-31.7c0-1.2,0.4-2.2,1.3-3s1.9-1.2,3-1.2c1.4,0,2.6,0.6,3.4,1.8l17.6,23.5v-21.1
			c0-1.3,0.4-2.3,1.2-3c0.8-0.7,1.8-1.1,3-1.1c1.1,0,2.1,0.4,2.9,1.1c0.8,0.7,1.2,1.7,1.2,3v31.7c0,1.2-0.4,2.3-1.3,3
			s-1.8,1.2-3,1.2c-1.4,0-2.5-0.5-3.4-1.6l-17.7-23.3v20.7c0,1.3-0.4,2.3-1.2,3.1c-0.8,0.8-1.8,1.1-2.9,1.1s-2.1-0.4-2.9-1.2
			C506.9,365.9,506.5,364.8,506.5,363.5z"/>
	</g>
	<g>
		<path class="st1" d="M760.7,347l-9.1-13c-0.4-0.7-0.7-1.3-0.7-2c0-1,0.4-1.9,1.2-2.6c0.8-0.8,1.6-1.1,2.6-1.1c1,0,1.9,0.5,2.7,1.5
			l7,10.2l7-10.2c0.6-1,1.5-1.5,2.6-1.5c0.6,0,1.2,0.2,1.8,0.5c0.6,0.4,1.1,0.9,1.5,1.5c0.4,0.6,0.5,1.2,0.5,1.9
			c0,0.7-0.2,1.3-0.6,1.9l-9.2,13v13.2c0,1.1-0.4,1.9-1.1,2.5s-1.6,0.9-2.5,0.9c-1,0-1.8-0.3-2.5-0.9s-1.1-1.5-1.1-2.5V347z"/>
	</g>
	<g>
		<path class="st1" d="M283.5,85.7v71.2c0,0.8-2.2,1.4-5,1.4s-5-0.6-5-1.4V85.7c0-0.8,2.2-1.4,5-1.4S283.5,84.9,283.5,85.7z"/>
	</g>
	<g>
		<path class="st1" d="M283.5,237.8v72.6c0,0.8-2.2,1.5-5,1.5s-5-0.7-5-1.5v-72.6c0-0.8,2.2-1.5,5-1.5S283.5,237,283.5,237.8z"/>
	</g>
	<g>
		<path class="st1" d="M41.5,238.2v72.6c0,0.8-2.2,1.5-5,1.5s-5-0.7-5-1.5v-72.6c0-0.8,2.2-1.5,5-1.5S41.5,237.4,41.5,238.2z"/>
	</g>
	<g>
		<path class="st1" d="M528.5,237.8v72.6c0,0.8-2.2,1.5-5,1.5s-5-0.7-5-1.5v-72.6c0-0.8,2.2-1.5,5-1.5S528.5,237,528.5,237.8z"/>
	</g>
</g>
</svg>
