<?xml version="1.0"?>
<svg xmlns="http://www.w3.org/2000/svg" height="512px" viewBox="0 -48 480.00321 480" width="512px"><path d="m479.679688 159.320312v-.039062c.199218-2.398438.320312-4.800781.320312-7.28125.027344-2.902344-.117188-5.808594-.433594-8.695312-7.039062-80.359376-112.269531-143.304688-239.566406-143.304688-126.351562 0-230.128906 62.167969-239.273438 140.738281-.46875 1.023438-.7187495 2.136719-.726562 3.261719v88c0 43.128906 28.550781 82.089844 74.265625 109.777344.902344.90625 2.015625 1.582031 3.238281 1.960937 49.742188 27.324219 105.75 41.203125 162.496094 40.261719 56.746094.941406 112.753906-12.9375 162.496094-40.261719 1.222656-.378906 2.335937-1.054687 3.238281-1.960937 45.714844-27.6875 74.265625-66.648438 74.265625-109.777344l-.320312-72.636719zm-239.679688-143.320312c118.855469 0 216.921875 56.320312 223.609375 128.5625l.070313 14.398438c-.902344 10.296874-3.632813 20.355468-8.054688 29.695312-27.183594 58.480469-115.855469 99.34375-215.625 99.34375s-188.441406-40.863281-215.625-99.367188c-5.441406-11.449218-8.300781-23.953124-8.375-36.632812 0-74.992188 100.488281-136 224-136zm-147.199219 256.433594c2.207031 1.066406 4.441407 2.117187 6.703125 3.152344 2.710938 1.230468 5.457032 2.421874 8.25 3.574218 2.335938.96875 4.679688 1.921875 7.070313 2.839844 2.863281 1.097656 5.769531 2.136719 8.703125 3.203125 2.402344.847656 4.871094 1.6875 7.359375 2.476563 3.035156.976562 6.121093 1.875 9.226562 2.761718 2.503907.71875 5 1.441406 7.542969 2.105469 1.457031.375 2.886719.796875 4.351562 1.117187v63.425782c-22.324218-5.652344-43.835937-14.148438-64-25.273438v-61.734375c1.59375.808594 3.191407 1.566407 4.792969 2.351563zm75.199219 24.734375c2.398438.480469 4.929688.800781 7.382812 1.265625 2.578126.449218 5.113282.929687 7.722657 1.320312 3.664062.558594 7.398437.992188 11.132812 1.441406 2.464844.292969 4.898438.636719 7.386719.886719 4.183594.414063 8.4375.695313 12.695312.976563 2.105469.136718 4.175782.34375 6.296876.453125 3.757812.1875 7.574218.21875 11.382812.296875v64.074218c-21.503906-.429687-42.925781-2.816406-64-7.128906zm80 6.640625c3.800781-.078125 7.625-.109375 11.375-.296875 2.121094-.109375 4.191406-.316407 6.289062-.453125 4.257813-.28125 8.511719-.554688 12.695313-.96875 2.488281-.25 4.929687-.601563 7.394531-.894532 3.726563-.449218 7.453125-.882812 11.117188-1.433593 2.601562-.390625 5.128906-.871094 7.695312-1.320313 2.570313-.449218 4.992188-.800781 7.433594-1.265625v63.578125c-21.074219 4.3125-42.496094 6.699219-64 7.128906zm80-10.207032c1.449219-.359374 2.863281-.742187 4.304688-1.121093 2.550781-.65625 5.046874-1.382813 7.550781-2.09375 3.105469-.890625 6.191406-1.792969 9.234375-2.761719 2.46875-.800781 4.894531-1.597656 7.316406-2.472656 2.953125-1.023438 5.875-2.070313 8.746094-3.199219 2.378906-.910156 4.71875-1.851563 7.023437-2.816406 2.804688-1.160157 5.570313-2.359375 8.296875-3.589844 2.25-1.023437 4.46875-2.070313 6.65625-3.136719 1.597656-.800781 3.277344-1.601562 4.871094-2.402344v61.707032c-20.167969 11.121094-41.675781 19.613281-64 25.269531zm-312-61.601562v-25.101562l.128906.199218c.640625 1.046875 1.40625 2.039063 2.070313 3.078125 1.746093 2.699219 3.496093 5.394531 5.457031 8 1.039062 1.386719 2.222656 2.707031 3.320312 4.058594 1.777344 2.183594 3.527344 4.375 5.449219 6.488281 1.308594 1.4375 2.742188 2.816406 4.125 4.222656 1.90625 1.9375 3.792969 3.878907 5.824219 5.761719 1.535156 1.40625 3.199219 2.757813 4.800781 4.132813 2.070313 1.777344 4.136719 3.554687 6.3125 5.257812 1.726563 1.351563 3.535157 2.648438 5.328125 3.960938 2.230469 1.597656 4.472656 3.246094 6.808594 4.800781 1.902344 1.269531 3.871094 2.496094 5.839844 3.726563l.566406.359374v60.863282c-34.847656-23.96875-56.03125-55.40625-56.03125-89.808594zm392 89.816406v-60.863281l.550781-.351563c1.945313-1.214843 3.898438-2.398437 5.777344-3.679687 2.398437-1.601563 4.632813-3.199219 6.886719-4.871094 1.769531-1.289062 3.546875-2.5625 5.242187-3.890625 2.230469-1.742187 4.335938-3.550781 6.398438-5.367187 1.601562-1.335938 3.152343-2.640625 4.640625-4 2.113281-1.953125 4.070312-4 6.039062-5.984375 1.304688-1.328125 2.671875-2.621094 3.914063-4 2.054687-2.253906 3.933593-4.589844 5.816406-6.925782.972656-1.210937 2.03125-2.402343 2.957031-3.601562 2.402344-3.128906 4.503906-6.34375 6.546875-9.601562.308594-.492188.679688-.957032.984375-1.453126l.09375-.152343.152344 24.925781c0 34.402344-21.191406 65.839844-56 89.816406zm0 0" fill="#FFFFFF"/><path d="m240 208c-56.9375 0-88-15.855469-88-24 0-4.417969-3.582031-8-8-8s-8 3.582031-8 8c0 24.90625 47.054688 38.53125 96 39.867188v24.132812c0 4.417969 3.582031 8 8 8s8-3.582031 8-8v-24.132812c48.945312-1.335938 96-14.960938 96-39.867188 0-26.261719-52.320312-40-104-40-56.9375 0-88-15.855469-88-24 0-8.140625 31.0625-24 88-24s88 15.859375 88 24c0 4.417969 3.582031 8 8 8s8-3.582031 8-8c0-24.902344-47.054688-38.527344-96-39.863281v-24.136719c0-4.417969-3.582031-8-8-8s-8 3.582031-8 8v24.136719c-48.945312 1.335937-96 14.960937-96 39.863281 0 26.265625 52.320312 40 104 40 56.9375 0 88 15.859375 88 24 0 8.144531-31.0625 24-88 24zm0 0" fill="#FFFFFF"/></svg>
