<?xml version="1.0"?>
<svg xmlns="http://www.w3.org/2000/svg" height="512px" viewBox="-105 -41 1331 1331.2499" width="512px"><path d="m1114.691406 633.335938c-.023437-.238282-.074218-.472657-.117187-.707032-.09375-.667968-.199219-1.34375-.347657-2.003906-.050781-.253906-.125-.496094-.195312-.753906-.164062-.625-.355469-1.257813-.574219-1.867188-.082031-.238281-.175781-.484375-.265625-.722656-.238281-.625-.519531-1.234375-.804687-1.839844-.097657-.207031-.183594-.421875-.300781-.617187-.371094-.710938-.789063-1.414063-1.226563-2.09375-.035156-.066407-.074219-.136719-.113281-.203125-.496094-.738282-1.042969-1.453125-1.609375-2.117188-.152344-.195312-.324219-.363281-.484375-.550781-.433594-.472656-.863282-.9375-1.324219-1.375-.234375-.226563-.457031-.421875-.6875-.632813-.460937-.398437-.921875-.789062-1.410156-1.140624-.148438-.121094-.265625-.246094-.417969-.355469l-258.085938-187.703125v-367.855469c0-34.945313-28.4375-63.378906-63.378906-63.378906h-263.261718c-13.464844 0-24.375 10.914062-24.375 24.378906s10.910156 24.375 24.375 24.375h263.261718c7.925782 0 14.621094 6.695313 14.621094 14.625v757.875l-29.25 21.269531v-740.140625c0-13.472656-10.921875-24.375-24.375-24.375h-380.261719c-13.46875 0-24.375 10.902344-24.375 24.375v740.140625l-29.25-21.269531v-757.875c0-7.929687 6.6875-14.625 14.621094-14.625h26.898437c13.453126 0 24.378907-10.910156 24.378907-24.375s-10.925781-24.378906-24.378907-24.378906h-26.898437c-34.945313 0-63.378906 28.433593-63.378906 63.378906v367.855469l-258.101563 187.703125c-.144531.109375-.269531.234375-.40625.335937-.480468.371094-.957031.761719-1.410156 1.160156-.230469.210938-.46875.40625-.6875.632813-.460938.4375-.890625.902344-1.320312 1.375-.164063.1875-.339844.367187-.492188.550781-.574219.683594-1.101562 1.382813-1.597656 2.117188-.058594.066406-.089844.140625-.140625.214844-.433594.675781-.84375 1.371093-1.21875 2.082031-.105469.210937-.191407.425781-.292969.617187-.292969.605469-.558594 1.214844-.800781 1.839844-.089844.238281-.175781.484375-.273438.726562-.207031.613282-.398437 1.238282-.566406 1.863282-.066406.257812-.136719.519531-.195313.773437-.152343.640625-.265624 1.316407-.351562 1.984375-.039062.234375-.085938.46875-.113281.707032-.101563.898437-.167969 1.8125-.167969 2.734374v546.019532c0 34.949218 28.433594 63.375 63.378906 63.375h994.542969c15.777344 0 30.203125-5.800782 41.308594-15.375.023437-.015625.054687-.039063.066406-.058594 13.457031-11.636719 22.003906-28.804688 22.003906-47.941406v-546.019532c0-.921874-.074219-1.835937-.171875-2.734374zm-48.589844 539.886718-336.371093-244.640625 336.371093-244.644531zm-1023.777343-489.285156 336.367187 244.644531-336.367187 244.640625zm494.683593 189.789062c8.839844-6.425781 26.351563-5.859374 36.019532 1.183594l442.503906 321.804688h-922.636719zm309.71875-384.792968 202.304688 147.136718-202.304688 147.144532zm-458.269531-364.757813h331.511719v751.214844l-31.6875 23.042969-86.574219-62.96875c-26.632812-19.355469-67.640625-19.882813-93.371093-1.171875l-88.191407 64.140625-31.6875-23.042969zm-126.757812 364.757813v294.28125l-202.308594-147.144532zm0 0" fill="#FFFFFF"/><path d="m422.011719 46.171875h.652343c13.464844 0 24.375-10.910156 24.375-24.375s-10.910156-24.378906-24.375-24.378906h-.652343c-13.46875 0-24.375 10.914062-24.375 24.378906s10.90625 24.375 24.375 24.375zm0 0" fill="#FFFFFF"/><path d="m523.589844 449.480469 42.585937 17.636719c5.316407 2.207031 9.484375 6.390624 11.714844 11.785156 2.242187 5.386718 2.246094 11.292968.046875 16.613281-4.578125 11.058594-17.316406 16.339844-28.386719 11.746094l-21.292969-8.824219c-12.433593-5.148438-26.699218.761719-31.851562 13.199219-5.152344 12.441406.75 26.695312 13.183594 31.847656l20.242187 8.382813v30.160156c0 13.472656 10.914063 24.378906 24.386719 24.378906 13.457031 0 24.375-10.90625 24.375-24.378906v-27.523438c19.359375-5.976562 36.035156-20.195312 44.378906-40.34375 7.191406-17.34375 7.167969-36.492187-.039062-53.914062-7.222656-17.425782-20.75-30.980469-38.09375-38.167969l-42.605469-17.648437c-5.3125-2.203126-9.464844-6.390626-11.703125-11.777344-2.242188-5.398438-2.253906-11.296875-.042969-16.609375 4.574219-11.070313 17.308594-16.34375 28.382813-11.765625l21.292968 8.828125c12.4375 5.148437 26.695313-.761719 31.847657-13.195313 5.144531-12.433594-.761719-26.699218-13.195313-31.851562l-20.222656-8.378906v-30.160157c0-13.457031-10.929688-24.375-24.375-24.375-13.472656 0-24.386719 10.917969-24.386719 24.375v27.5c-19.367187 5.984375-36.046875 20.214844-44.398437 40.371094-7.175782 17.335937-7.164063 36.488281.054687 53.917969 7.222657 17.429687 20.75 30.976562 38.101563 38.171875zm0 0" fill="#FFFFFF"/><path d="m515.121094 771.75c0 13.472656 10.914062 24.375 24.375 24.375h100.035156c13.457031 0 24.375-10.902344 24.375-24.375 0-13.457031-10.917969-24.375-24.375-24.375h-100.035156c-13.460938 0-24.375 10.917969-24.375 24.375zm0 0" fill="#FFFFFF"/><path d="m468.894531 796.125h.578125c13.453125 0 24.375-10.902344 24.375-24.375 0-13.449219-10.921875-24.375-24.375-24.375h-.578125c-13.464843 0-24.375 10.925781-24.375 24.375 0 13.472656 10.910157 24.375 24.375 24.375zm0 0" fill="#FFFFFF"/></svg>
