<?xml version="1.0" encoding="utf-8"?>
<!-- Generator: Adobe Illustrator 22.0.1, SVG Export Plug-In . SVG Version: 6.00 Build 0)  -->
<svg version="1.1"
	 id="Layer_1" inkscape:version="0.91 r13725" sodipodi:docname="yii_logo_light.svg" xmlns:cc="http://creativecommons.org/ns#" xmlns:dc="http://purl.org/dc/elements/1.1/" xmlns:inkscape="http://www.inkscape.org/namespaces/inkscape" xmlns:rdf="http://www.w3.org/1999/02/22-rdf-syntax-ns#" xmlns:sodipodi="http://sodipodi.sourceforge.net/DTD/sodipodi-0.dtd" xmlns:svg="http://www.w3.org/2000/svg"
	 xmlns="http://www.w3.org/2000/svg" xmlns:xlink="http://www.w3.org/1999/xlink" x="0px" y="0px" viewBox="0 0 62 34"
	 style="enable-background:new 0 0 62 34;" xml:space="preserve">
<style type="text/css">
	.st0{fill:#1D82C5;}
	.st1{fill:#7CC734;}
	.st2{fill:#3E7FCA;}
	.st3{fill:#EB6E2E;}
</style>
<path id="XMLID_1_" class="st0" d="M57.9,24V9.1c0-0.3-0.2-0.5-0.5-0.5h-2.2c-0.3,0-0.5,0.2-0.5,0.5V24c0,0.3,0.2,0.5,0.5,0.5h2.2
	C57.7,24.4,57.9,24.2,57.9,24L57.9,24z M46.5,24.4V8.7c-1.2,0-3.1,0.8-3.1,2.5v10.7c-0.7,0.1-1.7,0.2-2.3,0.2c-2,0-2.5-1.4-2.5-3.3
	v-7.7c-0.1-1.9-2.2-2.4-3.1-2.4v10c0,3.6,1.8,5.9,5.6,5.9c0.6,0,1.8-0.2,2.3-0.3v0.2c0.5,3.1-3.3,1.9-5.3,1.7
	c-1.5,0-2.5,1.2-2.8,2.6c0.9,0.3,3.7,0.6,5.7,0.8C44.6,29.7,46.5,27.7,46.5,24.4L46.5,24.4z M52.2,24V9.1c0-0.3-0.2-0.5-0.5-0.5
	h-2.2c-0.3,0-0.5,0.2-0.5,0.5V24c0,0.3,0.2,0.5,0.5,0.5h2.2C52,24.4,52.2,24.2,52.2,24L52.2,24z M50.6,4.4c0.9,0,1.6,0.7,1.6,1.6
	s-0.7,1.6-1.6,1.6C49.7,7.6,49,6.9,49,6C49,5.2,49.7,4.4,50.6,4.4L50.6,4.4z M56.4,4.4C57.3,4.4,58,5.1,58,6s-0.7,1.6-1.6,1.6
	c-0.9,0-1.6-0.7-1.6-1.6C54.8,5.2,55.5,4.4,56.4,4.4L56.4,4.4z"/>
<g id="g4179_1_">
	<g id="g4185_1_" transform="translate(183.9946,331.1367)">
		<path id="path4187_1_" inkscape:connector-curvature="0" class="st1" d="M-163.9-321.6c-1.6-4.5,3-9.3,6.8-9.5
			c2.3,1.2,4.2,4.3,4.1,8.4c-0.3,5.2-3.9,9.6-7.9,13.7C-161.2-313.9-162.3-317.1-163.9-321.6"/>
	</g>
	<g id="g4189_1_" transform="translate(166.4893,282.874)">
		<path id="path4191_1_" inkscape:connector-curvature="0" class="st2" d="M-155.3-248.9c-0.6-5,1.4-9.3,3.4-11.9
			c1-1.2,1.7-2.4,2.3-3.4c1.1,0.5,3.9,2,5.5,4.4C-144.3-256.3-146.9-249.9-155.3-248.9"/>
	</g>
	<g id="g4193_1_" transform="translate(160.2344,320.6611)">
		<path id="path4195_1_" inkscape:connector-curvature="0" class="st3" d="M-152.2-305.8c-6.7-1.9-8.3-7.7-8-11.7
			c6.5-2.6,13.4,0.1,17.5,5.7c2.8,3.9,4.6,9,4.9,13.3c-1.9-2.6-4.4-4-7.5-5.2C-147.4-304.4-149.4-305-152.2-305.8"/>
	</g>
	<g id="g4197_1_" transform="translate(459.5723,301.9727)">
	</g>
	<g id="g4201_1_" transform="translate(262.3789,302.3389)">
	</g>
	<g id="g4205_1_" transform="translate(259.4429,340.7461)">
	</g>
	<g id="g4209_1_" transform="translate(240.5635,301.4668)">
	</g>
</g>
</svg>
