<?xml version="1.0" encoding="utf-8"?>
<!-- Generator: Adobe Illustrator 22.0.1, SVG Export Plug-In . SVG Version: 6.00 Build 0)  -->
<svg version="1.1" id="Layer_1" xmlns="http://www.w3.org/2000/svg" xmlns:xlink="http://www.w3.org/1999/xlink" x="0px" y="0px"
	 viewBox="0 0 70.9 70.9" style="enable-background:new 0 0 70.9 70.9;" xml:space="preserve">
<style type="text/css">
	.st0{fill:#F6AE1D;}
</style>
<g>
	<path class="st0" d="M36.4,49.9c-3.2,0-5.8-0.9-7.8-2.7c-1.9-1.7-2.9-3.9-3-6.6h-1.9c-0.4,0-0.7-0.3-0.7-0.7v-2.8
		c0-0.4,0.3-0.7,0.7-0.7h1.9v-1.3h-1.9c-0.4,0-0.7-0.3-0.7-0.7v-2.8c0-0.4,0.3-0.7,0.7-0.7h1.9c0.1-2.9,1.1-5.2,3-7
		c2-1.9,4.6-2.8,7.7-2.8c0.8,0,1.5,0.1,2.3,0.2c0.7,0.1,1.5,0.2,2.4,0.4c0.4,0.1,0.6,0.4,0.6,0.8l-0.4,4.2c0,0.2-0.1,0.4-0.3,0.5
		c-0.1,0.1-0.3,0.1-0.4,0.1c-0.1,0-0.1,0-0.2,0c-0.6-0.2-1.3-0.3-1.9-0.4c-0.6-0.1-1.3-0.2-1.9-0.2c-1.2,0-2.2,0.4-2.8,1.2
		c-0.6,0.7-1,1.7-1,3h7.1c0.4,0,0.7,0.3,0.7,0.7v2.8c0,0.4-0.3,0.7-0.7,0.7h-7.1v1.3h7.1c0.4,0,0.7,0.3,0.7,0.7v2.8
		c0,0.4-0.3,0.7-0.7,0.7h-7.1c0.1,1.1,0.4,2,1,2.6c0.7,0.7,1.6,1.1,2.9,1.1c0.7,0,1.3,0,2-0.1c0.6-0.1,1.2-0.2,1.8-0.4
		c0.1,0,0.2,0,0.2,0c0.1,0,0.3,0,0.4,0.1c0.2,0.1,0.3,0.3,0.3,0.6l0.4,4.2c0,0.4-0.2,0.7-0.6,0.8c-0.7,0.2-1.5,0.3-2.3,0.4
		C38,49.8,37.2,49.9,36.4,49.9z"/>
	<g>
		<polygon class="st0" points="39,33.7 39,32.1 36.6,32.1 34.8,33.7 		"/>
		<path class="st0" d="M35.4,15.6c-10.9,0-19.8,8.9-19.8,19.8c0,10.9,8.9,19.8,19.8,19.8c10.9,0,19.8-8.9,19.8-19.8
			C55.3,24.5,46.4,15.6,35.4,15.6z M35.4,53.5c-4.7,0-9-1.8-12.2-4.8l2.8-2.5c-0.6-1-1.1-2-1.4-3.2L21,46.3c-2.3-3-3.6-6.8-3.6-10.9
			c0-10,8.1-18.1,18.1-18.1c4.7,0,9,1.8,12.2,4.7l-5.1,4.6c-0.1,0.6-0.4,1.2-0.9,1.5c-0.3,0.2-0.7,0.3-1.1,0.4l-1,0.9h0.1
			c1.1,0,2.1,0.9,2.1,2.1v0.4l8.1-7.4c2.3,3,3.7,6.8,3.7,10.9C53.5,45.4,45.4,53.5,35.4,53.5z"/>
		<path class="st0" d="M31.2,40v-0.7h2.4l1.8-1.6h-4.2v-0.6L27,40.8c0.1,1.3,0.4,2.5,1,3.5l3.2-3C31.2,41,31.2,40.5,31.2,40z"/>
	</g>
</g>
</svg>
