<?xml version="1.0" encoding="utf-8"?>
<!-- Generator: Adobe Illustrator 22.0.1, SVG Export Plug-In . SVG Version: 6.00 Build 0)  -->
<svg version="1.1" id="Layer_1" xmlns="http://www.w3.org/2000/svg" xmlns:xlink="http://www.w3.org/1999/xlink" x="0px" y="0px"
	 viewBox="0 0 70.9 70.9" style="enable-background:new 0 0 70.9 70.9;" xml:space="preserve">
<style type="text/css">
	.st0{fill-rule:evenodd;clip-rule:evenodd;fill:#F6AE1D;}
</style>
<g>
	<path class="st0" d="M45.2,31.2c0.9,0.5,1.9,1,2.8,1.6c3.5,2.3,5.8,5.5,6.9,9.6c0.9,3.2-1.5,6.4-4.8,6.4c-3.9,0.1-7.9,0-11.8,0
		c-0.1,0-0.1,0-0.2,0c0-0.8,0-1.5,0-2.4c0.2,0,0.4,0,0.6,0c3.8,0,7.5,0,11.3,0c0.9,0,1.7-0.4,2.2-1.1c0.5-0.7,0.7-1.4,0.4-2.3
		c-1.4-5-4.5-8.3-9.4-9.9c-0.4-0.1-0.7-0.1-1.1,0c-3.5,1.4-7.6,0.1-10-3c-2-2.6-2.7-5.5-1.4-8.7c1.5-3.5,4.1-5.6,8-5.9
		c2.7-0.2,5,0.9,6.8,2.8c1.5,1.5,2.4,3.3,2.6,5.5c0.2,2.5-0.6,4.6-2.2,6.5C45.7,30.7,45.5,31,45.2,31.2z M45.8,24.7
		c0-3.8-2.8-6.7-6.6-6.7c-3.8,0-6.7,2.8-6.7,6.7c0,3.8,2.8,6.7,6.6,6.7C43,31.3,45.8,28.5,45.8,24.7z"/>
	<path class="st0" d="M29.2,34c3,0.1,5.9,2.2,7,5.1c1,2.8,0.1,6-2.4,8c-0.4,0.3-0.5,0.6-0.5,1.1c0,1,0,2,0,3c0,2.1-2,4.1-4.1,4.1
		c-2.1,0-4.1-2-4.1-4.1c0-1.1,0-2.2,0-3.3c0-0.3-0.1-0.4-0.3-0.6c-2-1.6-3.1-3.6-3-6.3c0.1-3.2,2.9-6.3,6.1-6.8
		C28.3,34.1,28.7,34.1,29.2,34z M34.1,41.5c0-2.9-2-5-5-5c-2.9,0-5,2-5,4.9c0,3,2,5,4.9,5.1C32,46.5,34.1,44.4,34.1,41.5z
		 M27.4,48.6c0,1-0.1,1.9,0,2.9c0.1,0.9,0.7,1.4,1.8,1.4c0.9,0,1.6-0.5,1.6-1.4c0.1-0.9,0-1.9,0-2.8C29.7,48.9,28.6,48.9,27.4,48.6z
		"/>
	<path class="st0" d="M18.3,42.7c-0.4,0-0.8,0-1.3,0c-0.7,0-1.3-0.5-1.3-1.2c0-0.7,0.5-1.2,1.3-1.2c0.9,0,1.7,0,2.6,0
		c0.8,0,1.3,0.5,1.3,1.2c0,0.7-0.5,1.2-1.3,1.2C19.2,42.7,18.8,42.7,18.3,42.7C18.3,42.7,18.3,42.7,18.3,42.7z"/>
	<path class="st0" d="M25.6,33.2c0,0.6-0.3,1-0.8,1.2c-0.5,0.2-1.1,0-1.3-0.4c-0.5-0.9-1.1-1.8-1.5-2.7c-0.3-0.5,0-1.2,0.5-1.5
		c0.5-0.3,1.2-0.2,1.5,0.3c0.6,0.9,1,1.8,1.6,2.7C25.6,33,25.6,33.1,25.6,33.2z"/>
	<path class="st0" d="M18.7,48.7c-0.6,0-1.1-0.3-1.2-0.8c-0.2-0.5,0-1.1,0.4-1.3c0.9-0.5,1.7-1.1,2.6-1.5c0.5-0.3,1.2,0,1.5,0.5
		c0.3,0.5,0.2,1.2-0.4,1.5c-0.8,0.5-1.7,1-2.5,1.5C19,48.7,18.8,48.7,18.7,48.7z"/>
	<path class="st0" d="M18.6,34.1c0.2,0.1,0.5,0.1,0.7,0.3c0.7,0.4,1.5,0.8,2.2,1.3c0.7,0.4,0.9,1.1,0.5,1.7c-0.4,0.6-1,0.8-1.7,0.4
		c-0.8-0.4-1.5-0.9-2.3-1.3c-0.5-0.3-0.7-0.8-0.5-1.4C17.6,34.5,18.1,34.2,18.6,34.1z"/>
	<path class="st0" d="M28,30.6c0-0.5,0-0.9,0-1.4c0-0.7,0.5-1.2,1.2-1.2c0.6,0,1.2,0.5,1.2,1.1c0,0.9,0,1.9,0,2.8
		c0,0.7-0.6,1.1-1.2,1.1c-0.7,0-1.2-0.5-1.2-1.2C27.9,31.6,28,31.1,28,30.6z"/>
</g>
</svg>
