<?xml version="1.0" encoding="utf-8"?>
<!-- Generator: Adobe Illustrator 22.0.1, SVG Export Plug-In . SVG Version: 6.00 Build 0)  -->
<svg version="1.1" id="Layer_1" xmlns="http://www.w3.org/2000/svg" xmlns:xlink="http://www.w3.org/1999/xlink" x="0px" y="0px"
	 viewBox="0 0 70.9 70.9" style="enable-background:new 0 0 70.9 70.9;" xml:space="preserve">
<style type="text/css">
	.st0{fill-rule:evenodd;clip-rule:evenodd;fill:#4AB978;}
</style>
<g>
	<path class="st0" d="M25.3,31.5c-0.3,0-0.7,0-1,0c-0.5,0-1,0-1.5,0.1c-0.9,0.1-1.6,0.9-1.6,1.8c0,0.5,0,1,0,1.5c0,3.8,0,7.6,0,11.5
		c0,0.3,0,0.5,0.2,0.7c0.1,0.1,0.2,0.2,0.2,0.2c0.7,0,1.4,0,2.1,0c0-0.7,0-1.3,0-2c0-0.2,0-0.5,0-0.7c0-1.3,0-2.7,0-4
		c0-0.3,0-0.5,0.3-0.7c0.4-0.3,1-0.1,1.2,0.4c0,0.1,0,0.3,0,0.4c0,5.1,0,10.1,0,15.2c0,0.2,0,0.4,0,0.5c0,0.2,0.3,0.5,0.5,0.5
		c0.9,0,1.8,0,2.7,0c0-0.5,0-1,0-1.5c0-2.5,0-4.9,0-7.4c0-0.5,0.3-0.8,0.8-0.8c0.3,0,0.6,0.3,0.7,0.6c0,0.1,0,0.2,0,0.3
		c0,2.8,0,5.6,0,8.4c0,0.1,0,0.2,0,0.3c0.1,0,0.2,0,0.2,0c0.8,0,1.5,0,2.3,0c0.4,0,0.6-0.2,0.7-0.6c0-0.1,0-0.3,0-0.4
		c0-5.1,0-10.3,0-15.4c0-0.3,0-0.6,0.3-0.8c0.4-0.3,1-0.1,1.1,0.4c0,0.1,0,0.2,0,0.4c0,2.1,0,4.2,0,6.3c0,0.1,0,0.2,0,0.3
		c0.1,0,0.1,0,0.1,0c0.6,0,1.1,0,1.7,0c0.3,0,0.7-0.3,0.7-0.7c0-0.1,0-0.2,0-0.3c0-4.2,0-8.3,0-12.5c0-0.5,0-1-0.4-1.4
		c-0.4-0.6-1-0.9-1.7-0.9c-0.6,0-1.2,0-1.8,0c-0.1,0-0.2,0-0.2,0c0.5-0.4,0.9-0.9,1.4-1.3c0,0,0.1-0.1,0.2-0.1
		c1.7-0.1,3.1,0.7,3.7,2.3c0.1,0.4,0.2,0.8,0.2,1.2c0,4.3,0,8.6,0,12.9c0,1-0.5,1.7-1.4,2c-0.2,0.1-0.5,0.1-0.8,0.1
		c-0.6,0-1.2,0-1.8,0c0,0.1,0,0.2,0,0.3c0,2.4,0,4.8,0,7.2c0,0.9-0.4,1.6-1.1,2c-0.2,0.1-0.5,0.2-0.8,0.2c-2.3,0-4.6,0-6.8,0
		c-0.9,0-1.9-0.9-1.9-1.8c0-1.1,0-2.1,0-3.2c0-1.5,0-3,0-4.5c0-0.2-0.1-0.3-0.3-0.3c-0.6,0-1.2,0-1.9,0c-0.7,0-1.2-0.5-1.6-1.1
		c-0.2-0.3-0.3-0.7-0.3-1.1c0-3,0-6,0-8.9c0-1.3,0-2.6,0-3.9c0-1.6,0.8-2.7,2.2-3.4c0.6-0.3,1.2-0.3,1.8-0.3c0.1,0,0.1,0.1,0.2,0.1
		C24.4,30.6,24.9,31,25.3,31.5z"/>
	<path class="st0" d="M37,50.1c0,0.4,0,0.8,0,1.2c0,1.6,0,3.1,0,4.7c0,0.4,0.1,0.7,0.4,0.9c0.1,0,0.2,0.1,0.3,0.1c0.9,0,1.9,0,2.8,0
		c0,0,0,0,0.1,0c0-0.1,0-0.2,0-0.3c0-3.7,0-7.5,0-11.2c0-0.2,0-0.5,0-0.7c0-0.5,0.3-0.7,0.8-0.7c0.4,0,0.7,0.3,0.7,0.7
		c0,0.1,0,0.2,0,0.3c0,3.9,0,7.7,0,11.6c0,0.1,0,0.2,0,0.3c0.1,0,0.2,0,0.3,0c0.8,0,1.7,0,2.5,0c0.5,0,0.8-0.3,0.8-0.7
		c0-0.6,0-1.3,0-1.9c0-4.1,0-8.2,0-12.3c0-2.3,0-4.6,0-6.9c0-0.6,0.5-1,1-0.7c0.2,0.1,0.4,0.3,0.4,0.5c0,0.1,0,0.2,0,0.2
		c0,1.3,0,2.7,0,4c0,0.8,0,1.6,0,2.4c0,0.1,0,0.2,0,0.3c0.1,0,0.1,0,0.2,0c0.6,0,1.2,0,1.8,0c0.5,0,0.8-0.3,0.8-0.8
		c0-0.1,0-0.2,0-0.3c0-4.5,0-9.1,0-13.6c0-0.6-0.1-1.1-0.4-1.6c-0.5-0.6-1.1-0.9-1.8-0.9c-1,0-1.9,0-2.9,0c-0.1,0-0.2,0-0.3,0
		c0.1-0.1,0.3-0.1,0.4-0.2c0.5-0.3,0.9-0.7,1.4-1.1c0.1,0,0.1-0.1,0.2-0.1c0.6,0,1.2,0,1.7,0.1c1,0.1,1.8,0.7,2.4,1.5
		c0.5,0.7,0.7,1.4,0.7,2.3c0,1.8,0,3.5,0,5.3c0,1.1,0,2.1,0,3.2c0,1.9,0,3.9-0.1,5.8c0,0.9-0.7,1.7-1.6,2c-0.2,0-0.3,0.1-0.5,0.1
		c-0.6,0-1.3,0-1.9,0c-0.1,0-0.1,0-0.2,0c0,0.1,0,0.2,0,0.3c0,2.7,0,5.5,0,8.2c0,1.4,0,2.8,0,4.2c0,0.9-0.4,1.6-1.2,2
		c-0.3,0.1-0.6,0.2-0.8,0.2c-2.4,0-4.9,0-7.3,0c-0.9,0-1.8-0.7-2-1.6c-0.1-0.3-0.1-0.6-0.1-0.9c0-1.7,0-3.4,0-5c0-0.1,0-0.2,0-0.3
		c0-0.4-0.1-0.4,0.4-0.4C36.3,50.1,36.7,50.1,37,50.1z"/>
	<path class="st0" d="M47.1,18.2c0,3.2-2.6,5.7-5.6,5.8c-3.2,0.1-5.9-2.5-5.9-5.7c0-3.2,2.6-5.7,5.7-5.7
		C44.5,12.4,47.1,15.1,47.1,18.2z M45.6,18.2c0.1-2.4-1.9-4.3-4.2-4.3c-2.4,0-4.4,1.9-4.4,4.3c0,2.4,1.9,4.3,4.3,4.3
		C43.7,22.5,45.7,20.6,45.6,18.2z"/>
	<path class="st0" d="M23.8,25.7c0-3,2.4-5.3,5.3-5.4c3,0,5.5,2.4,5.5,5.4c0,2.9-2.4,5.4-5.3,5.4C26.2,31.2,23.7,28.7,23.8,25.7z
		 M25.2,25.7c0,2.2,1.8,4,3.9,4c2.2,0,4-1.8,4-3.9c0-2.2-1.8-4-3.9-4C27,21.8,25.1,23.6,25.2,25.7z"/>
	<path class="st0" d="M22.4,24.7c-0.5,0-1,0-1.5,0c0,0.8,0,1.7,0,2.5c0.5,0,1,0,1.5,0c0.2,0.5,0.3,0.9,0.5,1.4c-0.1,0-0.1,0-0.2,0
		c-0.6,0-1.3,0-1.9,0c-0.7,0-1.4-0.6-1.4-1.3c0-1,0-1.9,0-2.9c0-0.6,0.6-1.2,1.2-1.2c0.7,0,1.4,0,2.1,0
		C22.6,23.7,22.5,24.2,22.4,24.7z"/>
	<path class="st0" d="M38.1,24.7c-0.7,0-1.5,0-2.2,0c-0.1-0.5-0.3-0.9-0.4-1.4c0.2,0,0.5,0,0.7,0c0,0,0.1,0,0.1,0
		C36.8,23.8,37.4,24.3,38.1,24.7z"/>
	<path class="st0" d="M47.1,32.2c0,0.4-0.3,0.7-0.7,0.7c-0.4,0-0.7-0.4-0.7-0.7c0-0.4,0.4-0.7,0.7-0.7
		C46.8,31.5,47.1,31.8,47.1,32.2z"/>
</g>
</svg>
