<?xml version="1.0" encoding="utf-8"?>
<!-- Generator: Adobe Illustrator 22.0.1, SVG Export Plug-In . SVG Version: 6.00 Build 0)  -->
<svg version="1.1" id="Layer_1" xmlns="http://www.w3.org/2000/svg" xmlns:xlink="http://www.w3.org/1999/xlink" x="0px" y="0px"
	 viewBox="0 0 70.9 70.9" style="enable-background:new 0 0 70.9 70.9;" xml:space="preserve">
<style type="text/css">
	.st0{fill:#4AB978;}
</style>
<g>
	<path class="st0" d="M39.9,43.2c2.2-1.4,3.6-3.9,3.6-6.7c0-4.4-3.6-8-8-8c-4.4,0-8,3.6-8,8c0,2.8,1.4,5.3,3.6,6.7
		c-4.9,1.8-8.4,6.5-8.4,12.1h2.1c0-5.9,4.8-10.7,10.7-10.7c5.9,0,10.7,4.8,10.7,10.7h2.1C48.3,49.7,44.8,45,39.9,43.2z M35.4,42.4
		c-3.3,0-5.9-2.6-5.9-5.9c0-3.3,2.6-5.9,5.9-5.9c3.3,0,5.9,2.6,5.9,5.9C41.3,39.8,38.7,42.4,35.4,42.4z"/>
	<path class="st0" d="M50.6,37.8c2.2-1.4,3.6-3.9,3.6-6.7c0-4.4-3.6-8-8-8c-2.1,0-4.1,0.9-5.5,2.2c-0.5,0.5-1,1.1-1.4,1.7
		c0.7,0.3,1.3,0.6,1.9,1c0.4-0.6,0.9-1.2,1.4-1.6c1-0.8,2.2-1.2,3.6-1.2c3.3,0,5.9,2.6,5.9,5.9c0,2.7-1.8,5-4.3,5.7
		c-0.5,0.1-1,0.2-1.6,0.2c-0.2,0-0.4,0-0.6,0c0,0.8-0.2,1.5-0.4,2.2c0.3,0,0.6-0.1,0.9-0.1c0.4,0,0.9,0,1.3,0.1
		c5.3,0.6,9.4,5.2,9.4,10.6H59C59,44.4,55.5,39.7,50.6,37.8z"/>
	<path class="st0" d="M24.7,39.2c0.3,0,0.6,0,0.9,0.1c-0.2-0.7-0.3-1.5-0.4-2.2c-0.2,0-0.4,0-0.6,0c-0.6,0-1.1-0.1-1.6-0.2
		c-2.5-0.7-4.3-3-4.3-5.7c0-3.3,2.6-5.9,5.9-5.9c1.3,0,2.6,0.5,3.6,1.2c0.6,0.4,1.1,1,1.4,1.6c0.6-0.4,1.2-0.7,1.9-1
		c-0.4-0.6-0.8-1.2-1.4-1.7c-1.4-1.4-3.4-2.2-5.5-2.2c-4.4,0-8,3.6-8,8c0,2.8,1.4,5.3,3.6,6.7c-4.9,1.8-8.4,6.5-8.4,12.1H14
		c0-5.5,4.1-10,9.4-10.6C23.8,39.2,24.3,39.2,24.7,39.2z"/>
	<path class="st0" d="M58.1,30.3c2.2-1.4,3.6-3.9,3.6-6.7c0-4.4-3.6-8-8-8c-2.1,0-4.1,0.9-5.5,2.2c-0.5,0.5-1,1.1-1.4,1.7
		c0.7,0.3,1.3,0.6,1.9,1c0.4-0.6,0.9-1.2,1.4-1.6c1-0.8,2.2-1.2,3.6-1.2c3.3,0,5.9,2.6,5.9,5.9c0,2.4-1.4,4.4-3.4,5.4
		c0.1,0.5,0.1,1,0.1,1.6c0,0.5-0.1,1-0.1,1.4c4.7,1.1,8.3,5.4,8.3,10.4h2.1C66.5,36.9,63,32.2,58.1,30.3z"/>
	<path class="st0" d="M14.6,30.6c0-0.5,0.1-1.1,0.1-1.6c-2-0.9-3.4-3-3.4-5.4c0-3.3,2.6-5.9,5.9-5.9c1.3,0,2.6,0.5,3.6,1.2
		c0.6,0.4,1.1,1,1.4,1.6c0.6-0.4,1.2-0.7,1.9-1c-0.4-0.6-0.8-1.2-1.4-1.7c-1.4-1.4-3.4-2.2-5.5-2.2c-4.4,0-8,3.6-8,8
		c0,2.8,1.4,5.3,3.6,6.7c-4.9,1.8-8.4,6.5-8.4,12.1h2.1c0-5.1,3.5-9.3,8.3-10.4C14.7,31.5,14.6,31,14.6,30.6z"/>
	<path class="st0" d="M35.4,17.7c2.9,0,5.2,2.1,5.8,4.8c1.2-0.7,2-0.9,2-0.9c-0.9-3.5-4-6.1-7.8-6.1c-3.8,0-6.9,2.6-7.8,6.1
		c0,0,0.8,0.2,2,0.9C30.2,19.8,32.6,17.7,35.4,17.7z"/>
</g>
</svg>
