<?xml version="1.0" encoding="utf-8"?>
<!-- Generator: Adobe Illustrator 22.0.1, SVG Export Plug-In . SVG Version: 6.00 Build 0)  -->
<svg version="1.1" id="Layer_1" xmlns="http://www.w3.org/2000/svg" xmlns:xlink="http://www.w3.org/1999/xlink" x="0px" y="0px"
	 viewBox="0 0 70.9 70.9" style="enable-background:new 0 0 70.9 70.9;" xml:space="preserve">
<style type="text/css">
	.st0{fill-rule:evenodd;clip-rule:evenodd;fill:#4AB978;}
</style>
<path class="st0" d="M43.4,16.3l-7,9.1l-13.9,4.7c-4.7,1.6-7.6,5.6-6,10.3c1.3,4,5,5.8,8.9,5.3c0.1,0.3,4.3,8.1,4.3,8.1
	c0.4,1.2,1.7,1.8,2.9,1.4l3.2-1.1c1.2-0.4,1.8-1.7,1.4-2.9l-4.3-8.1l8.5-2.9l10.9,2.9c1.8,0.5,2.8-1.1,2.3-2.6l-7.9-23.4
	C46.2,15.8,44.4,14.9,43.4,16.3z M34,52.3l-1.1,0.4c-0.6,0.2-1.2-0.1-1.4-0.7l-3.7-7l3.1-1l3.7,7C34.8,51.5,34.6,52.1,34,52.3z
	 M36.5,39.6l-9.6,3.3c-2.1,0.7-6.6,1.5-8.2-3.2c-1.6-4.7,2.4-6.8,4.6-7.5l9.6-3.3L36.5,39.6z M40.7,38.1l-2.1,0.7L35,28.2l2.1-0.7
	C37.1,27.5,40.3,37,40.7,38.1z M52.4,41l-9.2-2.5c-0.6-1.7-4-11.8-4.3-12.8l5.7-7.6L52.4,41z"/>
</svg>
