<?xml version="1.0" encoding="utf-8"?>
<!-- Generator: Adobe Illustrator 22.0.1, SVG Export Plug-In . SVG Version: 6.00 Build 0)  -->
<svg version="1.1" id="Layer_1" xmlns="http://www.w3.org/2000/svg" xmlns:xlink="http://www.w3.org/1999/xlink" x="0px" y="0px"
	 viewBox="0 0 70.9 70.9" style="enable-background:new 0 0 70.9 70.9;" xml:space="preserve">
<style type="text/css">
	.st0{fill-rule:evenodd;clip-rule:evenodd;fill:#4AB978;}
</style>
<g>
	<path class="st0" d="M33.6,28.6c0.2,0,0.5,0,0.7,0c0.1,0,0.2,0,0.2,0.2c0,0.2,0,0.5,0.1,0.7c0.1,0.6,0.5,0.7,1,0.7
		c0.3,0,0.6-0.2,0.7-0.5c0.1-0.3,0.1-0.5-0.1-0.7c-0.2-0.2-0.4-0.4-0.7-0.6c-0.7-0.5-1.4-0.9-2-1.5c-0.3-0.3-0.5-0.7-0.6-1.1
		c-0.1-0.4-0.1-0.7,0-1.1c0.1-0.8,0.5-1.3,1.2-1.6c0.1-0.1,0.3-0.1,0.4-0.1c0.1,0,0.1-0.1,0.1-0.1c0-0.3,0-0.6,0-0.8
		c0-0.1,0-0.2,0.2-0.2c0.5,0,0.9,0,1.4,0c0.1,0,0.2,0,0.2,0.2c0,0.3,0,0.5,0,0.8c0,0.1,0,0.1,0.1,0.2c0.6,0.1,1,0.5,1.3,1
		c0.2,0.4,0.3,0.7,0.3,1.2c0,0.1,0,0.2,0,0.4c0,0.2,0,0.2-0.2,0.2c-0.3,0-0.6,0-0.9,0c-0.1,0-0.3,0-0.4,0c-0.2,0-0.2,0-0.2-0.2
		c0-0.3,0-0.5-0.1-0.7c-0.2-0.4-0.5-0.5-0.9-0.4c-0.3,0-0.5,0.1-0.6,0.4c-0.1,0.3-0.1,0.5,0.1,0.7c0.2,0.3,0.6,0.6,0.9,0.8
		c0.6,0.4,1.3,0.9,1.8,1.4c0.3,0.4,0.6,0.8,0.7,1.3c0.1,1-0.2,1.9-1.3,2.4c-0.1,0.1-0.3,0.1-0.4,0.1c-0.1,0-0.1,0.1-0.1,0.2
		c0,0.3,0,0.6,0,0.8c0,0.1,0,0.1-0.1,0.1c-0.5,0-1,0-1.4,0c-0.1,0-0.1,0-0.1-0.1c0-0.3,0-0.5,0-0.8c0-0.1,0-0.2-0.1-0.2
		c-0.6-0.1-1.1-0.4-1.4-1c-0.1-0.3-0.2-0.6-0.3-0.9c0-0.3,0-0.6-0.1-0.9c0-0.2,0-0.2,0.2-0.2C33.1,28.6,33.4,28.6,33.6,28.6z"/>
	<path class="st0" d="M26.5,55.3c-1.7,0-3.4,0-5.1,0c-0.9,0-1.2-0.2-1.2-1.2c0-1.4,0-2.8,0-4.2c0-0.6,0.2-1,0.9-1.1
		c0.2,0,0.4-0.2,0.7-0.3c-0.1-0.2-0.2-0.5-0.4-0.7c-1.3-1.4-2.7-2.8-4.1-4.1c-1.2-1.1-1.7-2.5-1.7-4.1c0.1-3.2,0-6.3,0-9.5
		c0-1.4,0.7-2.4,1.9-2.9c1.2-0.5,2.3-0.3,3.3,0.5c0.7,0.6,1.1,1.4,1.1,2.4c0,1.5,0,3,0,4.5c0,0.6,0.2,0.8,0.8,0.9
		c0.8,0.2,1.6,0.5,2.2,1c1.7,1.5,3.3,3.2,4.9,4.8c1,1,1.5,2.1,1.4,3.5c-0.1,1.1,0,2.1,0,3.2c0,0.5,0.1,0.8,0.7,0.9
		c0.3,0.1,0.8,0.6,0.8,0.9c0.1,1.5,0,3,0,4.6c0,0.7-0.4,1-1.1,1C29.9,55.3,28.2,55.3,26.5,55.3z M17.3,35.2c0,1.6,0,3.2,0,4.8
		c0,0.9,0.3,1.7,1,2.3c1.5,1.4,2.9,2.8,4.3,4.3c0.4,0.4,0.7,0.9,0.8,1.5c0.2,0.6,0.5,0.8,1,0.8c1.4,0,2.8,0,4.2,0c0.7,0,1-0.3,0.9-1
		c0-0.5-0.1-1.1,0-1.6c0.3-2-0.4-3.5-2-4.8c-1.4-1.2-2.6-2.6-3.9-3.8c-0.6-0.6-1.5-0.6-2.1,0c-0.5,0.5-0.6,1.3,0,2
		c0.2,0.2,0.3,0.4,0.5,0.6c1,1,2.1,2.1,3.1,3.1c0.4,0.4,0.7,0.9,0.2,1.4c-0.5,0.5-1,0.3-1.4-0.2c-1.2-1.2-2.4-2.4-3.6-3.6
		c-1.1-1.1-1.3-2.5-0.5-3.9c0.2-0.3,0.3-0.6,0.3-1c0-1.9,0-3.9,0-5.8c0-1-0.7-1.7-1.5-1.6c-0.8,0-1.4,0.7-1.4,1.7
		C17.3,31.9,17.3,33.6,17.3,35.2z M26.4,53.6c0.8,0,1.6,0,2.3,0c2.7-0.1,2.3,0.6,2.3-2.5c0-0.6-0.3-0.8-0.8-0.8c-2,0-4,0-6,0
		c-2.4,0-2.4,0-2.4,2.4c0,0.6,0.2,0.9,0.8,0.9C23.9,53.6,25.2,53.6,26.4,53.6z"/>
	<path class="st0" d="M55.3,35.2c0,1.6,0,3.2,0,4.8c0,1.3-0.5,2.4-1.4,3.3c-1.5,1.4-2.9,2.9-4.3,4.3c-0.2,0.2-0.3,0.5-0.5,0.8
		c0.2,0.1,0.5,0.1,0.7,0.3c0.3,0.3,0.7,0.6,0.7,0.9c0.1,1.5,0,3.1,0,4.7c0,0.6-0.3,0.9-1,0.9c-3.5,0-7,0-10.5,0c-0.6,0-1-0.3-1-1
		c0-1.5,0-3,0-4.6c0-0.6,0.3-0.9,0.9-1c0.5,0,0.7-0.3,0.7-0.8c0-1.2,0-2.4,0-3.6c0-1.1,0.4-2.1,1.2-2.9c1.6-1.7,3.3-3.3,4.9-5
		c0.7-0.7,1.5-1.2,2.6-1.2c0.6,0,0.6-0.3,0.6-0.8c0-1.5,0-2.9,0-4.4c0-1.9,1.3-3.3,3.1-3.3c1.8,0,3.2,1.4,3.2,3.3c0,0.1,0,0.1,0,0.2
		C55.3,32,55.3,33.6,55.3,35.2z M53.6,35.3c0-1.6,0-3.3,0-4.9c0-1.1-0.5-1.8-1.4-1.8c-0.9,0-1.5,0.7-1.5,1.8c0,1.7,0,3.4,0,5.1
		c0,0.5,0.2,1.1,0.4,1.6c0.6,1.2,0.5,2.6-0.4,3.5c-1.3,1.3-2.6,2.6-3.9,3.9c-0.4,0.4-0.8,0.5-1.2,0.1c-0.4-0.4-0.3-0.8,0-1.2
		c0.2-0.2,0.4-0.4,0.6-0.6c1-1,2-1.9,2.9-2.9c0.8-0.8,0.9-1.6,0.3-2.3c-0.6-0.7-1.5-0.6-2.3,0.2c-1.6,1.6-3.2,3.1-4.7,4.8
		c-0.5,0.5-0.8,1.2-0.8,1.9c-0.1,1.2,0,2.4,0,3.6c0,0.5,0.2,0.7,0.7,0.7c1.5,0,3.1,0,4.6,0c0.5,0,0.7-0.2,0.8-0.6
		c0.2-0.6,0.5-1.2,0.9-1.6c1.3-1.4,2.6-2.7,4-4c0.9-0.8,1.3-1.7,1.2-2.9C53.5,38.2,53.6,36.7,53.6,35.3z M44.5,50.4
		c-0.8,0-1.7,0-2.5,0c-2.2,0-2.2,0-2.2,2.3c0,0.7,0.2,1,0.9,1c2,0,4,0,5.9,0c2.4,0,2.4,0,2.3-2.4c0-0.6-0.3-0.8-0.8-0.8
		C47,50.4,45.7,50.4,44.5,50.4z"/>
	<path class="st0" d="M35.4,38.9c-6.5,0-11.8-5.3-11.7-11.7c0.1-6.5,5.3-11.6,11.9-11.6c6.3,0,11.6,5.4,11.5,11.7
		C47.1,33.7,41.9,38.9,35.4,38.9z M35.3,37.2c5.5,0,10.1-4.4,10.1-9.9c0-5.5-4.4-10-9.8-10.1c-5.5,0-10.1,4.4-10.1,9.9
		C25.4,32.6,29.9,37.2,35.3,37.2z"/>
	<path class="st0" d="M35.1,18.7c-0.3,0-1,0-1.6,0.2c0,0-0.1,0-0.1,0.1c-0.3,0.1-0.5,0.4-0.5,0.7c0,0.5,0.4,0.8,0.8,0.8
		c0.1,0,0.1,0,0.2,0c0.1,0,0.3-0.1,0.5-0.1c2.8-0.4,5.7,1,7,3.5c1.4,2.6,1,5.8-0.9,7.9c-2.3,2.6-6,3.1-8.9,1.2
		c-2.9-1.8-3.9-5.4-2.5-8.7c0.3-0.6,0.5-1.2-0.3-1.5c-0.7-0.3-1,0.3-1.2,0.9c-2.6,5.7,1.6,12.2,7.8,12.2c4.7,0,8.6-4,8.6-8.6
		C44,22.5,40.2,18.6,35.1,18.7z"/>
	<path class="st0" d="M32.1,20.8c0,0.5-0.4,0.8-0.8,0.8c-0.5,0-0.8-0.4-0.8-0.8c0-0.5,0.4-0.8,0.8-0.8C31.7,20,32.1,20.4,32.1,20.8z
		"/>
</g>
</svg>
