<?xml version="1.0" encoding="utf-8"?>
<!-- Generator: Adobe Illustrator 22.0.1, SVG Export Plug-In . SVG Version: 6.00 Build 0)  -->
<svg version="1.1" id="Layer_1" xmlns="http://www.w3.org/2000/svg" xmlns:xlink="http://www.w3.org/1999/xlink" x="0px" y="0px"
	 viewBox="0 0 70.9 70.9" style="enable-background:new 0 0 70.9 70.9;" xml:space="preserve">
<style type="text/css">
	.st0{fill:#4AB978;}
</style>
<g>
	<path class="st0" d="M56.5,54.9c-0.4,0-0.7-0.1-0.9-0.4l-3.4-3.4l-1.4,2.6c-0.2,0.4-0.7,0.7-1.2,0.7c-0.6,0-1.1-0.4-1.3-0.9
		l-4.1-12.2c-0.1-0.4-0.1-0.9,0.2-1.2c0.3-0.3,0.7-0.6,1.1-0.6c0.1,0,0.3,0,0.4,0.1l12.2,4.1c0.5,0.2,0.9,0.6,0.9,1.2
		c0,0.5-0.2,1-0.7,1.3l-2.6,1.4l3.4,3.4c0.3,0.3,0.4,0.6,0.4,0.9c0,0.4-0.1,0.7-0.4,0.9l-1.7,1.7C57.2,54.8,56.8,54.9,56.5,54.9z"/>
	<path class="st0" d="M31.2,15.6c-10.9,0-19.8,8.9-19.8,19.8c0,10.9,8.9,19.8,19.8,19.8c5.9,0,11.1-2.6,14.8-6.6l-1-3
		c-0.3,0.3-0.5,0.7-0.8,1c-1.3-1.1-2.7-2.1-4.2-2.8c0.3-1.2,0.5-2.4,0.6-3.7h-2.7c-0.1,0.9-0.3,1.8-0.4,2.7c-2-0.6-4.1-1-6.2-1
		c-2.1,0-4.2,0.3-6.2,1c-0.2-0.9-0.3-1.8-0.4-2.7h-2.7c0.1,1.3,0.3,2.5,0.6,3.7c-1.5,0.7-2.9,1.7-4.2,2.8c-2.4-2.7-3.9-6.1-4.2-9.9
		h3.8v-2.7h-3.8c0.3-3.8,1.8-7.2,4.2-9.9c1.3,1.1,2.7,2.1,4.2,2.8c-0.3,1.2-0.5,2.4-0.6,3.7h2.7c0.1-0.9,0.3-1.8,0.4-2.7
		c2,0.6,4.1,1,6.2,1c2.1,0,4.2-0.3,6.2-1c0.2,0.9,0.3,1.8,0.4,2.7h2.7c-0.1-1.3-0.3-2.5-0.6-3.7c1.5-0.7,2.9-1.7,4.2-2.8
		c2.3,2.7,3.9,6.1,4.2,9.9h-3.8v2.7h3.8c-0.1,0.9-0.2,1.9-0.4,2.8l2.5,0.8c0.4-1.6,0.6-3.2,0.6-4.9C51,24.5,42.1,15.6,31.2,15.6z
		 M38.2,49.1c0.4-0.8,0.7-1.6,1-2.5c1.1,0.6,2.1,1.2,3,2c-1.6,1.3-3.4,2.4-5.4,3.1C37.3,50.9,37.8,50,38.2,49.1z M31.2,44.6
		c1.9,0,3.8,0.3,5.5,0.9c-1.4,4.4-3.5,7.1-5.5,7.1c-2,0-4.2-2.7-5.5-7.1C27.4,44.9,29.3,44.6,31.2,44.6z M23.2,46.5
		c0.3,0.9,0.6,1.7,1,2.5c0.4,1,0.9,1.8,1.4,2.6c-2-0.7-3.8-1.7-5.4-3.1C21.1,47.8,22.1,47.1,23.2,46.5z M24.1,21.8
		c-0.4,0.8-0.7,1.6-1,2.5c-1.1-0.6-2.1-1.2-3-2c1.6-1.3,3.4-2.4,5.4-3.1C25,20,24.5,20.8,24.1,21.8z M31.2,26.3
		c-1.9,0-3.8-0.3-5.5-0.9c1.4-4.4,3.5-7.1,5.5-7.1c2,0,4.2,2.7,5.5,7.1C35,26,33.1,26.3,31.2,26.3z M39.2,24.3
		c-0.3-0.9-0.6-1.7-1-2.5c-0.4-1-0.9-1.8-1.4-2.6c2,0.7,3.8,1.7,5.4,3.1C41.3,23.1,40.3,23.8,39.2,24.3z"/>
	<path class="st0" d="M42.5,30.7H19.9c-1.1,0-2,0.9-2,2v5.5c0,1.1,0.9,2,2,2h22.6c1.1,0,2-0.9,2-2v-5.5
		C44.5,31.6,43.6,30.7,42.5,30.7z M25.3,38h-1l-1-3.2l-1,3.2h-1l-1.4-4.9h1.2l0.8,3.4l0.9-3.3h1l0.9,3.3l0.8-3.4h1.2L25.3,38z
		 M33.4,38h-1l-1-3.2l-1,3.2h-1l-1.4-4.9h1.2l0.8,3.4l0.9-3.3h1l0.9,3.3l0.8-3.4h1.2L33.4,38z M41.4,38h-1l-1-3.2l-1,3.2h-1L36,33.1
		h1.2l0.8,3.4l0.9-3.3h1l0.9,3.3l0.8-3.4h1.2L41.4,38z"/>
</g>
</svg>
