<?xml version="1.0" encoding="utf-8"?>
<!-- Generator: Adobe Illustrator 22.0.1, SVG Export Plug-In . SVG Version: 6.00 Build 0)  -->
<svg version="1.1" id="Layer_1" xmlns="http://www.w3.org/2000/svg" xmlns:xlink="http://www.w3.org/1999/xlink" x="0px" y="0px"
	 viewBox="0 0 70.9 70.9" style="enable-background:new 0 0 70.9 70.9;" xml:space="preserve">
<style type="text/css">
	.st0{fill-rule:evenodd;clip-rule:evenodd;fill:#4AB978;}
	.st1{fill:#4AB978;}
</style>
<g>
	<path class="st0" d="M43.3,52.5c-7.6,3.6-18.5,1.7-24.2-7.4c-5.6-8.9-3-20.6,5.9-26.3c8.9-5.8,20.3-3.3,26.3,5
		c1.9,2.6,3,5.6,3.4,8.7c0.4,3.5-0.1,7-1.5,10.3c-0.4,1-1,1.9-1.6,2.8c0,0-0.1,0-0.1,0c0-0.3,0-0.7,0-1c0-0.7,0-1.3,0-2
		c0-0.4,0.3-0.9,0.4-1.3c0.3-1,0.6-2,0.9-3c0.3-1.3,0.4-2.7,0.3-4.1c-0.1-1.3-0.3-2.5-0.6-3.7c-0.6-2.3-1.7-4.4-3.1-6.3
		c-1.5-1.9-3.2-3.4-5.3-4.6c-1.3-0.7-2.6-1.3-4-1.6c-1-0.2-1.9-0.4-2.9-0.5c-0.7,0-1.3-0.1-2-0.1c-1.8,0-3.5,0.4-5.3,0.9
		c-2.1,0.7-3.9,1.8-5.6,3.2c-1.6,1.3-2.9,2.9-3.9,4.7c-0.8,1.4-1.4,2.9-1.8,4.5c-0.2,0.9-0.3,1.7-0.4,2.6c-0.1,0.7-0.1,1.4-0.1,2.1
		c0.1,1.3,0.2,2.6,0.6,3.9c0.5,2.1,1.4,4,2.7,5.7c0.9,1.3,2,2.4,3.2,3.4c1.6,1.3,3.3,2.3,5.2,2.9c1.4,0.5,2.9,0.8,4.4,0.9
		c1.4,0.2,2.8,0,4.2-0.2c1.2-0.2,2.3-0.6,3.4-0.9c0.2-0.1,0.4-0.1,0.6,0.1C42.5,51.8,42.9,52.1,43.3,52.5z"/>
	<path class="st0" d="M53.9,48.8c-0.2,0.2-0.3,0.4-0.5,0.5c-1.9,1.9-3.8,3.8-5.7,5.7c-0.3,0.3-0.3,0.3-0.7,0
		c-1.9-1.9-3.9-3.9-5.8-5.8c-0.1-0.1-0.2-0.2-0.3-0.3c0.2,0,0.3-0.1,0.5-0.1c0.9,0,1.7,0,2.6,0c0.3,0,0.4-0.1,0.4-0.4
		c0-1.2,0-2.4,0-3.6c0-0.3,0.1-0.4,0.4-0.4c1.7,0,3.5,0,5.2,0c0.3,0,0.4,0.1,0.4,0.5c0,1.2,0,2.3,0,3.5c0,0.3,0.1,0.4,0.4,0.4
		c0.9,0,1.7,0,2.6,0C53.6,48.8,53.7,48.8,53.9,48.8z"/>
	<path class="st0" d="M47.4,43.9c-0.8,0-1.7,0-2.5,0c-0.3,0-0.5-0.1-0.5-0.4c0-0.6,0-1.1,0-1.7c0-0.3,0.1-0.4,0.4-0.4
		c1.8,0,3.5,0,5.3,0c0.3,0,0.4,0.1,0.4,0.4c0,0.6,0,1.1,0,1.7c0,0.3-0.1,0.4-0.4,0.4C49.2,43.9,48.3,43.9,47.4,43.9z"/>
	<path class="st0" d="M47.4,40.7c-0.9,0-1.7,0-2.6,0c-0.3,0-0.4-0.1-0.4-0.4c0-0.2,0-0.4,0-0.6c0-0.3,0.1-0.4,0.4-0.4
		c1.8,0,3.5,0,5.3,0c0.3,0,0.4,0.1,0.4,0.4c0,0.2,0,0.4,0,0.6c0,0.3-0.1,0.4-0.4,0.4C49.2,40.7,48.3,40.7,47.4,40.7z"/>
	<path class="st0" d="M47.4,37.8c0.9,0,1.7,0,2.6,0c0.3,0,0.4,0.1,0.4,0.4c0,0.3,0,0.5-0.4,0.5c-1.7,0-3.5,0-5.2,0
		c-0.4,0-0.4-0.2-0.4-0.5c0-0.3,0-0.5,0.4-0.5C45.7,37.8,46.5,37.8,47.4,37.8z"/>
	<path class="st1" d="M34.8,48.9c-3.1,0-5.6-0.9-7.5-2.6c-1.8-1.6-2.8-3.8-2.9-6.4h-1.9c-0.4,0-0.7-0.3-0.7-0.7v-2.7
		c0-0.4,0.3-0.7,0.7-0.7h1.9v-1.2h-1.9c-0.4,0-0.7-0.3-0.7-0.7v-2.7c0-0.4,0.3-0.7,0.7-0.7h1.9c0.1-2.8,1.1-5.1,2.9-6.8
		c1.9-1.8,4.4-2.7,7.5-2.7c0.7,0,1.5,0,2.2,0.1c0.7,0.1,1.5,0.2,2.3,0.4c0.4,0.1,0.6,0.4,0.6,0.8l-0.4,4.1c0,0.2-0.1,0.4-0.3,0.5
		C39,26.9,38.8,27,38.7,27c-0.1,0-0.1,0-0.2,0c-0.6-0.2-1.2-0.3-1.9-0.4c-0.6-0.1-1.3-0.2-1.9-0.2c-1.2,0-2.1,0.4-2.7,1.1
		c-0.6,0.7-0.9,1.7-1,2.9h6.9c0.4,0,0.7,0.3,0.7,0.7v2.7c0,0.4-0.3,0.7-0.7,0.7H31v1.2h6.9c0.4,0,0.7,0.3,0.7,0.7v2.7
		c0,0.4-0.3,0.7-0.7,0.7H31c0.1,1.1,0.4,1.9,1,2.5c0.7,0.7,1.6,1,2.8,1c0.6,0,1.3,0,1.9-0.1c0.6-0.1,1.2-0.2,1.8-0.4
		c0.1,0,0.2,0,0.2,0c0.1,0,0.3,0,0.4,0.1c0.2,0.1,0.3,0.3,0.3,0.5l0.4,4c0,0.4-0.2,0.7-0.5,0.8c-0.7,0.2-1.4,0.3-2.2,0.4
		C36.3,48.9,35.6,48.9,34.8,48.9z"/>
</g>
</svg>
