<?xml version="1.0" encoding="utf-8"?>
<!-- Generator: Adobe Illustrator 22.0.1, SVG Export Plug-In . SVG Version: 6.00 Build 0)  -->
<svg version="1.1" id="Layer_1" xmlns="http://www.w3.org/2000/svg" xmlns:xlink="http://www.w3.org/1999/xlink" x="0px" y="0px"
	 viewBox="0 0 70.9 70.9" style="enable-background:new 0 0 70.9 70.9;" xml:space="preserve">
<style type="text/css">
	.st0{fill:#4AB978;}
	.st1{fill:#FFFFFF;}
</style>
<g>
	<g>
		<path class="st0" d="M39.7,27.7c-0.1-0.3-0.4-0.5-0.7-0.5c-0.3,0.1-0.5,0.4-0.5,0.7c0.1,0.6,0.2,1.2,0.2,1.8
			c0,0.3,0.3,0.6,0.6,0.6s0.6-0.3,0.6-0.6C39.9,29.1,39.8,28.4,39.7,27.7z"/>
		<path class="st0" d="M38.8,26.9c0.3-0.1,0.5-0.5,0.3-0.8c-1.5-3.9-5.2-6.4-9.4-6.4c-0.3,0-0.6,0.3-0.6,0.6c0,0.3,0.3,0.6,0.6,0.6
			c3.7,0,6.9,2.2,8.2,5.6c0.1,0.2,0.3,0.4,0.6,0.4C38.7,27,38.8,27,38.8,26.9z"/>
		<path class="st0" d="M54.4,50.2l-9-9c-0.9-0.9-2.3-1.1-3.4-0.6l-1.5-1.5c2.2-2.5,3.5-5.8,3.5-9.3c0-7.8-6.4-14.2-14.2-14.2
			c-7.8,0-14.2,6.4-14.2,14.2C15.6,37.6,22,44,29.8,44c3.6,0,6.8-1.3,9.3-3.5l1.5,1.5c-0.5,1.1-0.3,2.5,0.6,3.4l9,9
			c0.6,0.6,1.3,0.9,2.1,0.9c0.8,0,1.5-0.3,2.1-0.9C55.6,53.2,55.6,51.4,54.4,50.2z M29.8,42c-6.7,0-12.2-5.5-12.2-12.2
			c0-6.7,5.5-12.2,12.2-12.2S42,23.1,42,29.8C42,36.5,36.5,42,29.8,42z"/>
	</g>
	<path class="st1" d="M53.4,51.5c-0.1,0-0.2,0-0.2-0.1l-1.9-1.9c-0.1-0.1-0.1-0.3,0-0.4c0.1-0.1,0.3-0.1,0.4,0l1.9,1.9
		c0.1,0.1,0.1,0.3,0,0.4C53.6,51.5,53.5,51.5,53.4,51.5z"/>
	<path class="st1" d="M50.8,48.9c-0.1,0-0.2,0-0.2-0.1c-2.1-2.2-4.3-4.3-6.4-6.4c-0.1-0.1-0.1-0.3,0-0.4c0.1-0.1,0.3-0.1,0.4,0
		c2.1,2.1,4.3,4.3,6.4,6.4c0.1,0.1,0.1,0.3,0,0.4C51,48.8,50.9,48.9,50.8,48.9z"/>
</g>
</svg>
