<?xml version="1.0" encoding="utf-8"?>
<!-- Generator: Adobe Illustrator 22.0.1, SVG Export Plug-In . SVG Version: 6.00 Build 0)  -->
<svg version="1.1" id="Layer_1" xmlns="http://www.w3.org/2000/svg" xmlns:xlink="http://www.w3.org/1999/xlink" x="0px" y="0px"
	 viewBox="0 0 250 96.3" style="enable-background:new 0 0 250 96.3;" xml:space="preserve">
<style type="text/css">
	.st0{fill:none;}
	.st1{fill:#DCDCDC;}
</style>
<path class="st0" d="M174.5,18.6c-1.6-1.5-3.8-2.3-6.6-2.3c-2.3,0-4.1,0.6-5.2,1.7c-1.2,1.1-1.8,2.5-1.8,4.1c0,1.2,0.5,2.3,1.5,3.2
	c0.9,1,3.2,1.9,6.7,2.7c8.7,2.2,14.9,4.4,18.7,6.6c0.6,0.4,1.2,0.8,1.7,1.2V25.1l-11.8,0.8C177.2,22.6,176.1,20.1,174.5,18.6z"/>
<g>
	<path class="st1" d="M241.3,48c-3.4-7.1-15.9-7.8-15.9-7.8s8.8-1.4,12.7-7c2-2.8,3.1-6,3.1-9.9c0-4.7-1.4-8.5-4.4-11.6
		c-2.9-3.2-7.3-4.8-13-4.8h-34.1h-1.2v1.4v0.1V9l0.4,0.4c2.9,3.1,4.7,7.7,5.4,13.8l-4.7,0.4l-1.1,0.1V25v10.7v0.7l0.5,0.4
		c2.3,1.9,4.1,4.1,5.2,6.6c1.4,3.1,2.1,6.6,2.1,10.4c0,4.5-0.9,8.7-2.8,12.5c-1.1,2.3-2.6,4.3-4.4,6l-4.5,2.3l-5.5,2.8h6H221
		c1.4,0,4.3-0.3,8.7-1c3.1-0.5,5.4-1.2,6.8-2.2c2.4-1.6,4.3-3.8,5.7-6.5c1.4-2.8,2.1-5.8,2.1-9.3C244.1,54.2,242.8,51.1,241.3,48z
		 M228.2,55.9c0,3.1-1,5.7-2.8,7.5s-4.6,2.7-8.6,2.7h-10.2h-2v-2.4V48.4V46h2h10.1c4,0,6.9,0.8,8.7,2.6
		C227.2,50.4,228.2,52.9,228.2,55.9z M204.5,36.5v-2.4V19.8v-2.4h2h8.8c3.6,0,6.1,0.8,7.7,2.4c1.7,1.7,2.5,4.1,2.5,7
		c0,3.8-1.4,6-2.5,7.2c-1.6,1.7-4.2,2.5-7.9,2.5h-8.7H204.5z"/>
</g>
<path class="st1" d="M145.4,13.4c1.2-2.1,2.8-3.9,4.8-5.5l-11.1,0.8c-2.3,1.7-9.3,12.3-14.6,21.4l-2.4,4.1L105.3,7H86.6l26.6,38.5
	V74h17.5V45.5L142.8,28c-0.2-1.2-0.3-2.4-0.3-3.6C142.5,20.4,143.5,16.8,145.4,13.4z"/>
<g>
	<path class="st1" d="M106,86.6h6.4v1.7h-2.3v5.3h-1.7v-5.3H106V86.6z"/>
	<path class="st1" d="M113.4,93.6v-7h2.7c0.9,0,1.5,0.2,1.8,0.5c0.3,0.4,0.5,0.8,0.5,1.2c0,0.7-0.3,1.2-1,1.5
		c0.9,0.3,1.4,0.9,1.4,1.8c0,0.5-0.1,0.9-0.4,1.2c-0.2,0.3-0.5,0.5-0.9,0.6s-0.9,0.2-1.5,0.2H113.4z M115.2,89.3h0.7
		c0.3,0,0.5-0.1,0.7-0.2c0.2-0.1,0.2-0.3,0.2-0.5c0-0.3-0.1-0.5-0.2-0.6s-0.3-0.2-0.5-0.2h-0.2h-0.6v1.5H115.2z M115.2,92.2h0.9
		c0.3,0,0.6-0.1,0.7-0.2c0.1-0.2,0.2-0.3,0.2-0.5s-0.1-0.4-0.2-0.6c-0.2-0.2-0.4-0.3-0.8-0.3h-0.7v1.6H115.2z"/>
	<path class="st1" d="M121,83.7c0.3,0,0.6,0.1,0.8,0.3c0.2,0.2,0.3,0.5,0.3,0.8s-0.1,0.6-0.3,0.8c-0.2,0.2-0.5,0.3-0.8,0.3
		s-0.6-0.1-0.8-0.3c-0.2-0.2-0.3-0.5-0.3-0.8s0.1-0.6,0.3-0.8S120.7,83.7,121,83.7z M120.1,86.6h1.7v7h-1.7V86.6z"/>
	<path class="st1" d="M124.3,93.6h-0.9v-7h1.7v4.1l3.5-4.1h0.8v7h-1.7v-4L124.3,93.6z M123.9,83.5h1.4c0.1,0.2,0.3,0.3,0.5,0.4
		c0.2,0.1,0.4,0.1,0.7,0.1c0.3,0,0.5-0.1,0.8-0.2c0.2-0.1,0.3-0.2,0.4-0.4h1.4c-0.1,0.5-0.3,1-0.8,1.3c-0.4,0.3-1,0.5-1.8,0.5
		c-0.5,0-1-0.1-1.3-0.2s-0.6-0.4-0.8-0.6C124.1,84.2,123.9,83.9,123.9,83.5z"/>
	<path class="st1" d="M141.2,83.7v1.7c-0.5,0.1-1,0.1-1.4,0.1c-0.8,0-1.5,0-1.9,0.1s-0.8,0.2-1.1,0.5c-0.3,0.2-0.6,0.5-0.7,0.8
		s-0.2,0.8-0.2,1.4c0.5-1.2,1.3-1.8,2.5-1.8c0.9,0,1.7,0.3,2.3,1c0.6,0.7,1,1.5,1,2.6s-0.3,2-1,2.7s-1.6,1.1-2.6,1.1
		c-0.8,0-1.6-0.3-2.2-0.8s-1-1.1-1.2-1.9c-0.2-0.7-0.3-1.5-0.3-2.3c0-1,0.1-1.9,0.4-2.6c0.3-0.7,0.6-1.2,1-1.5s0.9-0.6,1.4-0.7
		c0.5-0.1,1.4-0.2,2.4-0.2C140.3,83.8,140.9,83.8,141.2,83.7z M140,90.1c0-0.6-0.2-1.1-0.5-1.4c-0.3-0.4-0.8-0.6-1.4-0.6
		c-0.5,0-1,0.2-1.3,0.6c-0.4,0.4-0.5,0.9-0.5,1.4c0,0.6,0.2,1.1,0.5,1.5c0.4,0.4,0.8,0.6,1.3,0.6s1-0.2,1.3-0.6
		C139.8,91.2,140,90.7,140,90.1z"/>
	<path class="st1" d="M149.9,90.6h-5.5c0.1,0.5,0.3,0.9,0.6,1.2c0.3,0.3,0.8,0.4,1.3,0.4c0.6,0,1.2-0.2,1.7-0.7l1.4,0.7
		c-0.4,0.5-0.8,0.9-1.3,1.2s-1.1,0.4-1.8,0.4c-1.1,0-1.9-0.3-2.6-1s-1-1.6-1-2.6c0-1.1,0.3-2,1-2.7s1.5-1.1,2.5-1.1
		c1.1,0,1.9,0.4,2.6,1.1c0.7,0.7,1,1.6,1,2.8L149.9,90.6z M148.2,89.2c-0.1-0.4-0.3-0.7-0.7-1c-0.3-0.2-0.7-0.4-1.2-0.4
		s-0.9,0.1-1.3,0.4c-0.2,0.2-0.4,0.5-0.6,0.9h3.8V89.2z"/>
	<path class="st1" d="M152.4,90.6v-1.3h0.3c0.2,0,0.4-0.1,0.6-0.2c0.2-0.1,0.3-0.3,0.3-0.5s-0.1-0.4-0.2-0.5
		c-0.2-0.1-0.3-0.2-0.6-0.2c-0.3,0-0.6,0.1-1.1,0.4l-0.7-1.2c0.6-0.5,1.2-0.7,2-0.7c0.7,0,1.2,0.2,1.7,0.5c0.4,0.4,0.7,0.8,0.7,1.4
		c0,0.6-0.3,1.1-1,1.5c0.8,0.3,1.3,0.9,1.3,1.7c0,0.6-0.2,1.1-0.7,1.6c-0.5,0.4-1.1,0.6-2,0.6s-1.7-0.3-2.3-0.8l0.9-1.2
		c0.4,0.3,0.8,0.5,1.2,0.5c0.3,0,0.5-0.1,0.7-0.2c0.2-0.1,0.3-0.3,0.3-0.6c0-0.2-0.1-0.4-0.2-0.6c-0.2-0.2-0.4-0.2-0.7-0.2H152.4z"
		/>
	<path class="st1" d="M158.8,93.6h-1.7v-7h6v7h-1.7v-5.3h-2.6L158.8,93.6L158.8,93.6z"/>
	<path class="st1" d="M171.6,90.6h-5.5c0.1,0.5,0.3,0.9,0.6,1.2c0.3,0.3,0.8,0.4,1.3,0.4c0.6,0,1.2-0.2,1.7-0.7l1.4,0.7
		c-0.4,0.5-0.8,0.9-1.3,1.2s-1.1,0.4-1.8,0.4c-1.1,0-1.9-0.3-2.6-1s-1-1.6-1-2.6c0-1.1,0.3-2,1-2.7s1.5-1.1,2.5-1.1
		c1.1,0,1.9,0.4,2.6,1.1c0.7,0.7,1,1.6,1,2.8L171.6,90.6z M169.9,89.2c-0.1-0.4-0.3-0.7-0.7-1c-0.3-0.2-0.7-0.4-1.2-0.4
		s-0.9,0.1-1.3,0.4c-0.2,0.2-0.4,0.5-0.6,0.9h3.8V89.2z"/>
	<path class="st1" d="M176.7,90.8h-1.4c-0.9,0-1.6-0.2-2.1-0.5c-0.5-0.4-0.8-1-0.8-1.8v-1.9h1.7v1.7c0,0.6,0.4,0.9,1.2,0.9h0.7h0.7
		v-2.6h1.7v7h-1.7L176.7,90.8L176.7,90.8z"/>
	<path class="st1" d="M181.9,89.1h2.6v-2.5h1.7v7h-1.7v-2.9h-2.6v2.9h-1.7v-7h1.7V89.1z"/>
	<path class="st1" d="M188.8,93.6h-0.9v-7h1.7v4.1l3.5-4.1h0.8v7h-1.7v-4L188.8,93.6z"/>
	<path class="st1" d="M196.5,93.6h-0.9v-7h1.7v4.1l3.5-4.1h0.8v7h-1.7v-4L196.5,93.6z M196.1,83.5h1.4c0.1,0.2,0.3,0.3,0.5,0.4
		c0.2,0.1,0.4,0.1,0.7,0.1c0.3,0,0.5-0.1,0.8-0.2c0.2-0.1,0.3-0.2,0.4-0.4h1.4c-0.1,0.5-0.3,1-0.8,1.3c-0.4,0.3-1,0.5-1.8,0.5
		c-0.5,0-1-0.1-1.3-0.2s-0.6-0.4-0.8-0.6C196.3,84.2,196.1,83.9,196.1,83.5z"/>
	<path class="st1" d="M213.4,83.7v1.7c-0.5,0.1-1,0.1-1.4,0.1c-0.8,0-1.5,0-1.9,0.1s-0.8,0.2-1.1,0.5c-0.3,0.2-0.6,0.5-0.7,0.8
		s-0.2,0.8-0.2,1.4c0.5-1.2,1.3-1.8,2.5-1.8c0.9,0,1.7,0.3,2.3,1c0.6,0.7,1,1.5,1,2.6s-0.3,2-1,2.7s-1.6,1.1-2.6,1.1
		c-0.8,0-1.6-0.3-2.2-0.8s-1-1.1-1.2-1.9c-0.2-0.7-0.3-1.5-0.3-2.3c0-1,0.1-1.9,0.4-2.6c0.3-0.7,0.6-1.2,1-1.5s0.9-0.6,1.4-0.7
		c0.5-0.1,1.4-0.2,2.4-0.2C212.5,83.8,213.1,83.8,213.4,83.7z M212.2,90.1c0-0.6-0.2-1.1-0.5-1.4c-0.3-0.4-0.8-0.6-1.4-0.6
		c-0.5,0-1,0.2-1.3,0.6s-0.5,0.9-0.5,1.4c0,0.6,0.2,1.1,0.5,1.5c0.4,0.4,0.8,0.6,1.3,0.6s1-0.2,1.3-0.6
		C212,91.2,212.2,90.7,212.2,90.1z"/>
	<path class="st1" d="M218.5,86.4c0.6,0,1.2,0.2,1.8,0.5c0.6,0.3,1,0.8,1.3,1.3c0.3,0.6,0.5,1.2,0.5,1.8c0,0.7-0.2,1.3-0.5,1.8
		c-0.3,0.6-0.8,1-1.3,1.3c-0.6,0.3-1.2,0.5-1.8,0.5c-1,0-1.8-0.4-2.5-1.1c-0.7-0.7-1-1.6-1-2.6c0-1.1,0.4-2,1.2-2.7
		C216.8,86.7,217.6,86.4,218.5,86.4z M218.5,88.1c-0.5,0-1,0.2-1.3,0.6s-0.5,0.9-0.5,1.5s0.2,1.1,0.5,1.5s0.8,0.6,1.3,0.6
		s1-0.2,1.3-0.6c0.4-0.4,0.5-0.9,0.5-1.5s-0.2-1.1-0.5-1.5C219.5,88.3,219.1,88.1,218.5,88.1z"/>
	<path class="st1" d="M223.5,86.6h1.7v2.6l2.4-2.6h2.1l-3,3.4l3.1,3.6h-2.3l-2-2.5l-0.2,0.2v2.2h-1.7v-6.9H223.5z"/>
	<path class="st1" d="M237.1,88l-1.4,0.8c-0.3-0.3-0.5-0.5-0.8-0.6S234.3,88,234,88c-0.6,0-1.2,0.2-1.6,0.6
		c-0.4,0.4-0.6,0.9-0.6,1.5s0.2,1.1,0.6,1.5s0.9,0.6,1.5,0.6c0.8,0,1.4-0.3,1.8-0.8l1.4,0.9c-0.7,1-1.8,1.5-3.1,1.5
		c-1.2,0-2.1-0.4-2.8-1.1c-0.7-0.7-1-1.6-1-2.6c0-0.7,0.2-1.3,0.5-1.9c0.3-0.6,0.8-1,1.4-1.3s1.3-0.5,2-0.5c0.7,0,1.3,0.1,1.8,0.4
		C236.3,87.1,236.7,87.5,237.1,88z"/>
</g>
<path class="st1" d="M140,52.9l18.7-1.4c0.4,3.5,1.2,6.2,2.5,8c2,3,4.9,4.5,8.7,4.5c2.8,0,5-0.8,6.5-2.3s2.3-3.3,2.3-5.3
	c0-1.9-0.7-3.6-2.2-5.1c-1.4-1.5-4.8-2.9-10.1-4.3c-8.6-2.2-14.8-5.2-18.4-8.9c-3.7-3.7-5.5-8.4-5.5-14.2c0-3.8,0.9-7.3,2.8-10.7
	c1.9-3.4,4.7-6,8.5-7.9s9-2.9,15.6-2.9c8.1,0,14.3,1.7,18.6,5.2c4.3,3.5,6.8,9.1,7.6,16.7l-18.5,1.3c-0.5-3.3-1.5-5.7-3.1-7.2
	s-3.7-2.3-6.5-2.3c-2.3,0-4,0.6-5.2,1.7s-1.7,2.5-1.7,4.1c0,1.2,0.5,2.2,1.4,3.2s3.1,1.9,6.6,2.7c8.6,2.1,14.7,4.3,18.4,6.5
	c3.7,2.2,6.4,4.9,8.1,8.1s2.5,6.9,2.5,10.9c0,4.7-1.1,9.1-3.4,13c-2.3,4-5.4,7-9.4,9.1s-9.1,3.1-15.3,3.1c-10.8,0-18.3-2.4-22.5-7.2
	C142.9,66.5,140.5,60.3,140,52.9z"/>
<g>
	<polygon class="st1" points="78.6,21.3 45.5,40.4 22.7,27.2 45.5,14 58.2,21.3 68.4,15.4 45.5,2.2 7.4,24.2 7.4,30.1 40.4,49.2 
		40.4,75.6 17.6,62.4 17.6,47.7 7.4,41.8 7.4,68.2 45.5,90.2 50.6,87.3 50.6,49.2 73.5,36 73.5,62.4 50.6,75.4 50.6,87.1 83.6,68.2 
		83.6,24.2 	"/>
	<polygon class="st1" points="51.3,41.2 81.5,23.8 78.6,22.2 48.4,39.5 	"/>
	<polygon class="st1" points="58.2,20.5 61.1,18.8 51.3,13.2 48.4,14.8 	"/>
	<polygon class="st1" points="14,67.8 14,46.5 8.1,43.1 8.1,67.8 45.5,89.4 48.4,87.7 	"/>
</g>
<path class="st1" d="M63.2,55.9c0-0.2,0-0.4-0.1-0.6c0.6-0.3,1.1-1,1.1-1.8c0-1.1-0.9-2-2-2s-2,0.9-2,2c0,0.8,0.4,1.4,1.1,1.8
	c0,0.2,0,0.4-0.1,0.6c-0.1,0.6-0.7,5.4-0.8,6.1c0.8-0.5,2.1-1.5,3.3-2.3C63.8,59,63.3,56.5,63.2,55.9z"/>
</svg>
