<?xml version="1.0" encoding="utf-8"?>
<!-- Generator: Adobe Illustrator 22.0.1, SVG Export Plug-In . SVG Version: 6.00 Build 0)  -->
<svg version="1.1" id="Layer_1" focusable="false" xmlns="http://www.w3.org/2000/svg" xmlns:xlink="http://www.w3.org/1999/xlink"
	 x="0px" y="0px" viewBox="0 0 392.6 614.7" style="enable-background:new 0 0 392.6 614.7;" xml:space="preserve">
<style type="text/css">
	.st0{fill:#F05824;}
</style>
<path class="st0" d="M28.2,16.7C-61.1,257.1,61.5,524,301.6,613.2c10.6,3.9,22.3,0,28.4-9.3l58.7-89.1c6.4-9.7,4.9-22.6-3.5-30.7
	l-88.3-84c-7.7-7.3-19.4-8.7-28.7-3.3l-67.6,39.5C140,374.6,103.3,292.9,96.3,208.5l74.1-25.4c10.1-3.4,16.7-13.2,16.2-23.8
	l-6-121.7c-0.6-11.5-9.4-21.1-20.9-22.6L53.8,1.2C42.7-0.2,32.1,6.2,28.2,16.7z"/>
</svg>
